<svg xmlns="http://www.w3.org/2000/svg" width="1100" height="3405" viewBox="0 0 2504 7752"><path fill="#000" fill-rule="evenodd" d="M1259.6 7104.5C1258.1 7103.1 1256.2 7100.4 1255.4 7098.3C1254.5 7096.3 1252.5 7093.1 1250.9 7091.1C1246.7 7085.8 1235.4 7070.4 1230.7 7063.5C1228.5 7060.2 1224.4 7054.6 1221.6 7051C1218.8 7047.4 1215.2 7042.5 1213.5 7040C1211.9 7037.5 1209.6 7034.4 1208.4 7033C1207.1 7031.6 1204 7027.3 1201.3 7023.3C1198.7 7019.4 1190.3 7007.7 1182.8 6997.3C1166.8 6975.5 1144.6 6944.6 1139.8 6937.7C1138 6935 1131.5 6926.2 1125.5 6917.9C1119.5 6909.7 1108.9 6895.1 1102 6885.4C1095.1 6875.7 1086.8 6864.2 1083.5 6859.7C1074.8 6848.1 1062.1 6830.5 1051.2 6815C1046 6807.6 1039.9 6799.2 1037.6 6796.5C1035.3 6793.8 1032.2 6789.7 1030.7 6787.5C1029.3 6785.3 1026.2 6781 1024 6778C1021.8 6775 1018.4 6770.2 1016.5 6767.5C1014.6 6764.8 1011.3 6760 1009 6757C1006.8 6754 1004.2 6750.2 1003.3 6748.6C1002.3 6747 1000.1 6744.1 998.5 6742.1C996.8 6740.1 994.8 6737.5 994 6736.4C986.6 6725.7 981.4 6719.2 979 6717.7C977.4 6716.7 975.1 6713.8 973.9 6711.2C972.6 6708.6 970.4 6704.9 968.8 6703C964.4 6697.5 953.2 6682.1 948.7 6675.5C946.5 6672.2 942.4 6666.6 939.6 6663C936.8 6659.4 933.2 6654.5 931.5 6652C929.9 6649.5 927.6 6646.4 926.4 6645C925.1 6643.6 922 6639.3 919.3 6635.3C916.7 6631.4 908.3 6619.7 900.8 6609.3C884.8 6587.5 862.6 6556.6 857.8 6549.7C856 6547 849.5 6538.2 843.5 6529.9C837.5 6521.7 826.9 6507.1 820 6497.4C813.1 6487.7 804.8 6476.2 801.5 6471.7C792.8 6460.1 780.1 6442.5 769.2 6427C764 6419.6 757.9 6411.2 755.6 6408.5C753.3 6405.8 750.2 6401.7 748.7 6399.5C747.3 6397.3 744.2 6393 742 6390C739.8 6387 736.4 6382.2 734.5 6379.5C732.6 6376.8 729.3 6372 727 6369C724.8 6366 722.2 6362.2 721.3 6360.6C720.3 6359 717.9 6355.8 716 6353.4C704.2 6338.7 699 6330.5 699 6326.5C699 6322.2 702.1 6313.8 705.9 6307.9C707.4 6305.4 713.1 6299.8 718.3 6295.3C735.7 6280.9 763.6 6269.1 803 6259.6C813.2 6257.1 824.6 6254.6 828.5 6254C832.4 6253.3 840 6252 845.5 6250.9C851 6249.9 859.8 6248.6 865 6248C870.2 6247.4 879.2 6246.3 885 6245.5C911.7 6241.8 974 6240.1 1020.4 6241.9C1037.4 6242.6 1054.7 6243.5 1058.9 6244.1C1063.1 6244.6 1075 6245.9 1085.5 6247C1096 6248.2 1107.7 6249.7 1111.5 6250.5C1115.3 6251.2 1120.5 6252.1 1123 6252.5C1125.5 6252.8 1131.8 6254 1137 6255.2C1170.4 6262.4 1188.7 6267.9 1209.4 6276.9L1223.2 6282.9L1220.4 6279.2C1218.9 6277.2 1216 6273.5 1214 6271C1212.1 6268.5 1209.1 6264.5 1207.5 6262C1205.9 6259.5 1203.6 6256.4 1202.4 6255C1201.1 6253.6 1198 6249.3 1195.3 6245.3C1192.7 6241.4 1184.3 6229.7 1176.8 6219.3C1160.8 6197.5 1138.6 6166.6 1133.8 6159.7C1132 6157 1125.5 6148.2 1119.5 6139.9C1113.5 6131.7 1102.9 6117.1 1096 6107.4C1089.1 6097.7 1080.8 6086.2 1077.5 6081.7C1068.8 6070.1 1056.1 6052.5 1045.2 6037C1040 6029.6 1033.9 6021.2 1031.6 6018.5C1029.3 6015.8 1026.2 6011.7 1024.7 6009.5C1023.3 6007.3 1020.2 6003 1018 6000C1015.8 5997 1012.4 5992.2 1010.5 5989.5C1008.6 5986.8 1005.3 5982 1003 5979C1000.8 5976 998.2 5972.2 997.3 5970.6C996.3 5969 993.9 5965.8 992 5963.4C980.2 5948.7 975 5940.5 975 5936.5C975 5932.2 978.1 5923.8 981.9 5917.9C983.4 5915.4 989.1 5909.8 994.3 5905.3C1011.7 5890.9 1039.6 5879.1 1079 5869.6C1089.2 5867.1 1100.7 5864.6 1104.5 5864C1108.3 5863.3 1116 5862 1121.5 5860.9C1127 5859.9 1135.8 5858.6 1141 5858C1146.2 5857.4 1155.2 5856.3 1161 5855.5C1187.7 5851.8 1250 5850.1 1296.4 5851.9C1313.4 5852.6 1330.7 5853.5 1334.9 5854.1C1339.1 5854.6 1351 5855.9 1361.5 5857C1372 5858.2 1383.7 5859.7 1387.5 5860.5C1391.3 5861.2 1396.5 5862.1 1399 5862.5C1410.8 5864.1 1443.9 5872.1 1459.4 5877.1C1475.9 5882.3 1497.3 5891.7 1505.9 5897.5C1509.8 5900 1516.6 5905.5 1521 5909.6C1529.8 5918 1533.7 5924.5 1534.7 5932.7C1535.2 5937.2 1534.9 5938.5 1532.5 5942.7C1531 5945.3 1528.9 5948.5 1527.8 5949.7C1525.8 5951.9 1510.1 5973.8 1496.4 5993.5C1492.2 5999.6 1484 6011.2 1478.1 6019.3C1472.3 6027.4 1466.8 6035.2 1466 6036.5C1465.2 6037.8 1460.2 6044.8 1455 6051.9C1449.8 6059.1 1444.6 6066.5 1443.6 6068.3C1442.5 6070 1439.6 6074.2 1437 6077.5C1434.5 6080.8 1431.8 6084.5 1431 6085.7C1428.2 6089.8 1412.7 6111.5 1410 6115C1407.5 6118.3 1405 6122 1399 6131.1C1397.6 6133.2 1391.8 6141.3 1386.1 6149.2C1380.3 6157.1 1373.5 6166.6 1370.8 6170.5C1368.1 6174.4 1363.6 6180.7 1360.7 6184.6C1351.2 6197.6 1349.9 6199.4 1343.9 6208.5C1340.7 6213.4 1334.6 6222 1330.5 6227.5C1326.4 6233 1321.4 6240 1319.3 6243C1317.2 6246 1310.4 6255.6 1304.2 6264.4C1298 6273.1 1293.2 6280.5 1293.5 6280.8C1293.7 6281.1 1298.1 6279.2 1303.2 6276.7C1320 6268.4 1362 6255.9 1386.5 6252C1390.3 6251.3 1398 6250 1403.5 6248.9C1409 6247.9 1417.8 6246.6 1423 6246C1428.2 6245.4 1437.2 6244.3 1443 6243.5C1469.7 6239.8 1532 6238.1 1578.4 6239.9C1595.4 6240.6 1612.7 6241.5 1616.9 6242.1C1621.1 6242.6 1633 6243.9 1643.5 6245C1654 6246.2 1665.7 6247.7 1669.5 6248.5C1673.3 6249.2 1678.5 6250.1 1681 6250.5C1692.8 6252.1 1725.9 6260.1 1741.4 6265.1C1757.9 6270.3 1779.3 6279.7 1787.9 6285.5C1791.8 6288 1798.6 6293.5 1803 6297.6C1811.8 6306 1815.7 6312.5 1816.7 6320.7C1817.2 6325.2 1816.9 6326.5 1814.5 6330.7C1813 6333.3 1810.9 6336.5 1809.8 6337.7C1807.8 6339.9 1792.1 6361.8 1778.4 6381.5C1774.2 6387.6 1766 6399.2 1760.1 6407.3C1754.3 6415.4 1748.8 6423.2 1748 6424.5C1747.2 6425.8 1742.2 6432.8 1737 6439.9C1731.8 6447.1 1726.6 6454.5 1725.6 6456.3C1724.5 6458 1721.6 6462.2 1719 6465.5C1716.5 6468.8 1713.8 6472.5 1713 6473.7C1710.2 6477.8 1694.7 6499.5 1692 6503C1689.5 6506.3 1687 6510 1681 6519.1C1679.6 6521.2 1673.8 6529.3 1668.1 6537.2C1662.3 6545.1 1655.5 6554.6 1652.8 6558.5C1650.1 6562.4 1645.6 6568.7 1642.7 6572.6C1633.2 6585.6 1631.9 6587.4 1625.9 6596.5C1622.7 6601.4 1616.6 6610 1612.5 6615.5C1608.4 6621 1602.7 6628.9 1599.9 6633C1597 6637.1 1590.4 6646.6 1585.1 6654C1579.8 6661.4 1575 6668.3 1574.5 6669.2C1574 6670.1 1569.5 6676.4 1564.5 6683.2C1554.2 6697.3 1550 6703.8 1547.9 6709.5C1547 6711.8 1545.1 6714.3 1543.3 6715.5C1541.6 6716.6 1539.4 6719.1 1538.4 6721C1537.3 6722.9 1535.4 6725.7 1534 6727.4C1531.4 6730.5 1515.2 6753.1 1502.4 6771.5C1498.2 6777.6 1490 6789.2 1484.1 6797.3C1478.3 6805.4 1472.8 6813.2 1472 6814.5C1471.2 6815.8 1466.2 6822.8 1461 6829.9C1455.8 6837.1 1450.6 6844.5 1449.6 6846.3C1448.5 6848 1445.6 6852.2 1443 6855.5C1440.5 6858.8 1437.8 6862.5 1437 6863.7C1434.2 6867.8 1418.7 6889.5 1416 6893C1413.5 6896.3 1411 6900 1405 6909.1C1403.6 6911.2 1397.8 6919.3 1392.1 6927.2C1386.3 6935.1 1379.5 6944.6 1376.8 6948.5C1374.1 6952.4 1369.6 6958.7 1366.7 6962.6C1357.2 6975.6 1355.9 6977.4 1349.9 6986.5C1346.7 6991.4 1340.6 7000 1336.5 7005.5C1332.4 7011 1326.7 7018.9 1323.9 7023C1321 7027.1 1314.4 7036.6 1309.1 7044C1303.8 7051.4 1299 7058.3 1298.5 7059.2C1298 7060.1 1293.5 7066.4 1288.5 7073.2C1277.9 7087.6 1273.7 7094.3 1272.1 7099.3C1270.8 7103.2 1266.8 7107 1264 7107C1263.1 7107 1261.1 7105.9 1259.6 7104.5ZM1264.4 7087.4C1265.3 7087.1 1266 7086.4 1266 7085.9C1266 7085.4 1269.3 7080.6 1273.2 7075.2C1287.5 7055.8 1292.7 7048.5 1294 7046.1C1294.7 7044.7 1301 7035.9 1308.1 7026.4C1315.2 7016.9 1321 7008.8 1321 7008.4C1321 7007.6 1334 6989.2 1339 6983C1341 6980.5 1345.5 6974.2 1349 6969C1352.5 6963.8 1361.9 6950.3 1369.9 6939.2C1377.9 6928 1385.8 6916.9 1387.5 6914.5C1389.2 6912.2 1392.4 6907.6 1394.8 6904.4C1397.1 6901.1 1402 6894.2 1405.5 6889C1409.1 6883.8 1414.8 6875.6 1418.3 6870.8C1434.1 6848.6 1440.3 6839.8 1450.7 6824.7C1460.5 6810.5 1467.2 6801.2 1479.6 6784.5C1481.4 6782.2 1483.3 6779.2 1484 6777.9C1484.7 6776.6 1486.3 6774.4 1487.5 6773C1488.8 6771.6 1491.9 6767.4 1494.6 6763.5C1505.2 6748 1509.3 6742.2 1513.5 6736.5C1516 6733.2 1519.2 6728.5 1520.7 6726.1C1525.2 6718.7 1528.2 6719 1458 6719L1396.3 6719L1391.9 6712.3C1386.5 6704.1 1380.1 6699.5 1367.5 6694.6C1355 6689.9 1333.8 6684.7 1321.5 6683.4C1318.2 6683.1 1313.7 6682.4 1311.5 6681.8C1305.9 6680.3 1231.8 6679.6 1220.5 6680.9C1200 6683.2 1187.2 6685.2 1183 6686.5C1180.5 6687.3 1175.8 6688.4 1172.6 6688.9C1162.1 6690.8 1146.2 6697.5 1137.8 6703.7C1133 6707.3 1131.9 6708.7 1130.9 6712.4C1130.3 6714.9 1129.1 6717.2 1128.1 6717.6C1127.2 6718.1 1098.1 6718.7 1063.3 6719C1014.9 6719.4 999.8 6719.8 998.9 6720.7C997.9 6721.7 998.7 6723.6 1003 6729.7C1005.9 6734 1009.7 6739.3 1011.5 6741.5C1013.2 6743.7 1017.3 6749.3 1020.5 6754C1023.7 6758.7 1028.7 6765.5 1031.7 6769.2C1034.6 6772.9 1037 6776.2 1037 6776.6C1037 6777 1038.7 6779.6 1040.9 6782.4C1046 6789.2 1069.8 6821.7 1075.8 6830.2C1078.4 6833.9 1083 6840.3 1086 6844.5C1089 6848.6 1093.1 6854.3 1095 6857.1C1096.9 6859.8 1100.3 6864.5 1102.5 6867.5C1104.7 6870.5 1109 6876.4 1112 6880.6C1115 6884.9 1121.4 6893.6 1126.1 6900C1130.8 6906.4 1138.9 6917.4 1143.9 6924.6C1149 6931.7 1155.8 6941.1 1159.1 6945.5C1166 6954.6 1171.2 6962 1175.5 6968.9C1177.2 6971.5 1180.8 6976.5 1183.6 6980.1C1189.7 6987.9 1200.6 7002.7 1204 7008C1205.4 7010.1 1211.9 7019.2 1218.5 7028.1C1225.1 7037 1231.2 7045.5 1232 7046.9C1233.6 7049.7 1262.1 7088 1262.6 7088C1262.7 7088 1263.5 7087.7 1264.4 7087.4ZM982.4 6699.4C983.3 6699.1 984 6698.4 984 6697.9C984 6697.4 987.3 6692.6 991.2 6687.2C1005.5 6667.8 1010.7 6660.5 1012 6658.1C1012.7 6656.7 1019 6647.9 1026.1 6638.4C1033.2 6628.9 1039 6620.8 1039 6620.4C1039 6619.6 1052 6601.2 1057 6595C1059 6592.5 1063.5 6586.2 1067 6581C1070.5 6575.8 1079.9 6562.3 1087.9 6551.2C1095.9 6540 1103.8 6528.9 1105.5 6526.5C1107.2 6524.2 1110.4 6519.6 1112.8 6516.4C1115.1 6513.1 1120 6506.2 1123.5 6501C1127.1 6495.8 1132.8 6487.6 1136.3 6482.8C1152.1 6460.6 1158.3 6451.8 1168.7 6436.7C1178.5 6422.5 1185.2 6413.2 1197.6 6396.5C1199.4 6394.2 1201.3 6391.2 1202 6389.9C1202.7 6388.6 1204.3 6386.4 1205.5 6385C1206.8 6383.6 1209.9 6379.4 1212.6 6375.5C1223.2 6360 1227.3 6354.2 1231.5 6348.5C1234 6345.2 1237.2 6340.5 1238.7 6338.1C1243.2 6330.7 1246.1 6331 1176.4 6331L1115.1 6331L1113.3 6328.4C1104.6 6316 1099.5 6312 1085.4 6306.6C1072.8 6301.8 1050.6 6296.6 1031.5 6294.1C1017.8 6292.3 1010.4 6292 980.5 6292C961.2 6292 941.9 6292.4 937.5 6293C916.6 6295.5 905.1 6297.2 901 6298.5C898.5 6299.3 893.8 6300.4 890.6 6301C884.6 6302 871.9 6306.5 864.5 6310.2C856.4 6314.3 850.3 6319.7 848.5 6324.4C847.5 6326.9 846 6329.2 845.1 6329.7C844.2 6330.1 815.3 6330.6 780.8 6330.8C726.6 6331.1 718 6331.3 716.9 6332.6C715.9 6333.8 716.4 6335.2 720 6340.3C727.4 6350.8 742.1 6371.1 747.9 6378.8C751 6382.9 753.9 6386.9 754.5 6387.8C755.7 6389.8 758 6393.1 775.9 6417.5C783.1 6427.4 791.2 6438.5 793.8 6442.2C796.4 6445.9 801 6452.3 804 6456.5C807 6460.6 811.1 6466.3 813 6469.1C814.9 6471.8 818.3 6476.5 820.5 6479.5C822.7 6482.5 827 6488.4 830 6492.6C833 6496.9 839.4 6505.6 844.1 6512C848.8 6518.4 856.9 6529.4 861.9 6536.6C867 6543.7 873.8 6553.1 877.1 6557.5C884 6566.6 889.2 6574 893.5 6580.9C895.2 6583.5 898.8 6588.5 901.6 6592.1C907.7 6599.9 918.6 6614.7 922 6620C923.4 6622.1 929.9 6631.2 936.5 6640.1C943.1 6649 949.2 6657.5 950 6658.9C951.6 6661.7 980.1 6700 980.6 6700C980.7 6700 981.5 6699.7 982.4 6699.4ZM1540.4 6697.4C1541.3 6697.1 1542 6696.4 1542 6695.9C1542 6695.4 1545.3 6690.6 1549.2 6685.2C1563.5 6665.8 1568.7 6658.5 1570 6656.1C1570.7 6654.7 1577 6645.9 1584.1 6636.4C1591.2 6626.9 1597 6618.8 1597 6618.4C1597 6617.6 1610 6599.2 1615 6593C1617 6590.5 1621.5 6584.2 1625 6579C1628.5 6573.8 1637.9 6560.3 1645.9 6549.2C1653.9 6538 1661.8 6526.9 1663.5 6524.5C1665.2 6522.2 1668.4 6517.6 1670.8 6514.4C1673.1 6511.1 1678 6504.2 1681.5 6499C1685.1 6493.8 1690.8 6485.6 1694.3 6480.8C1710.1 6458.6 1716.3 6449.8 1726.7 6434.7C1736.5 6420.5 1743.2 6411.2 1755.6 6394.5C1757.4 6392.2 1759.3 6389.2 1760 6387.9C1760.7 6386.6 1762.3 6384.4 1763.5 6383C1764.8 6381.6 1767.9 6377.4 1770.6 6373.5C1781.2 6358 1785.3 6352.2 1789.5 6346.5C1792 6343.2 1795.2 6338.5 1796.7 6336.1C1801.2 6328.7 1804.1 6329 1734.4 6329L1673.1 6329L1671.3 6326.4C1662.6 6314 1657.5 6310 1643.4 6304.6C1630.8 6299.8 1608.6 6294.6 1589.5 6292.1C1575.8 6290.3 1568.4 6290 1538.5 6290C1519.2 6290 1499.9 6290.4 1495.5 6291C1474.6 6293.5 1463.1 6295.2 1459 6296.5C1456.5 6297.3 1451.8 6298.4 1448.6 6299C1442.6 6300 1429.9 6304.5 1422.5 6308.2C1414.4 6312.3 1408.3 6317.7 1406.5 6322.4C1405.5 6324.9 1404 6327.2 1403.1 6327.7C1402.2 6328.1 1373.3 6328.6 1338.8 6328.8C1284.6 6329.1 1276 6329.3 1274.9 6330.6C1273.9 6331.8 1274.4 6333.2 1278 6338.3C1285.4 6348.8 1300.1 6369.1 1305.9 6376.8C1309 6380.9 1311.9 6384.9 1312.5 6385.8C1313.7 6387.8 1316 6391.1 1333.9 6415.5C1341.1 6425.4 1349.2 6436.5 1351.8 6440.2C1354.4 6443.9 1359 6450.3 1362 6454.5C1365 6458.6 1369.1 6464.3 1371 6467.1C1372.9 6469.8 1376.3 6474.5 1378.5 6477.5C1380.7 6480.5 1385 6486.4 1388 6490.6C1391 6494.9 1397.4 6503.6 1402.1 6510C1406.8 6516.4 1414.9 6527.4 1419.9 6534.6C1425 6541.7 1431.8 6551.1 1435.1 6555.5C1442 6564.6 1447.2 6572 1451.5 6578.9C1453.2 6581.5 1456.8 6586.5 1459.6 6590.1C1465.7 6597.9 1476.6 6612.7 1480 6618C1481.4 6620.1 1487.9 6629.2 1494.5 6638.1C1501.1 6647 1507.2 6655.5 1508 6656.9C1509.6 6659.7 1538.1 6698 1538.6 6698C1538.7 6698 1539.5 6697.7 1540.4 6697.4ZM1027.5 6666.6C1044.1 6658.4 1086.2 6645.9 1110.5 6642C1114.3 6641.3 1122 6640 1127.5 6638.9C1133 6637.9 1141.8 6636.6 1147 6636C1152.2 6635.4 1161.2 6634.3 1167 6633.5C1193.7 6629.8 1256 6628.1 1302.4 6629.9C1319.4 6630.6 1336.7 6631.5 1340.9 6632.1C1345.1 6632.6 1357 6633.9 1367.5 6635C1378 6636.2 1389.7 6637.7 1393.5 6638.5C1397.3 6639.2 1402.5 6640.1 1405 6640.5C1407.5 6640.8 1413.8 6642 1419 6643.2C1452.4 6650.4 1470.7 6655.9 1491.4 6664.9L1505.2 6670.9L1502.4 6667.2C1500.9 6665.2 1498 6661.5 1496 6659C1494.1 6656.5 1491.1 6652.5 1489.5 6650C1487.9 6647.5 1485.6 6644.4 1484.4 6643C1483.1 6641.6 1480 6637.3 1477.3 6633.3C1474.7 6629.4 1466.3 6617.7 1458.8 6607.3C1442.8 6585.5 1420.6 6554.6 1415.8 6547.7C1414 6545 1407.5 6536.2 1401.5 6527.9C1395.5 6519.7 1384.9 6505.1 1378 6495.4C1371.1 6485.7 1362.8 6474.2 1359.5 6469.7C1350.8 6458.1 1338.1 6440.5 1327.2 6425C1322 6417.6 1315.9 6409.2 1313.6 6406.5C1311.3 6403.8 1308.2 6399.7 1306.7 6397.5C1305.3 6395.3 1302.2 6391 1300 6388C1297.8 6385 1294.4 6380.2 1292.5 6377.5C1290.6 6374.8 1287.3 6370 1285 6367C1282.8 6364 1280.2 6360.2 1279.3 6358.6C1278.3 6357 1276.1 6354.1 1274.5 6352.1C1272.8 6350.1 1270.8 6347.5 1270 6346.4C1269.2 6345.2 1266.2 6341 1263.3 6337.1L1258.2 6330L1255.9 6333.7C1254.7 6335.8 1252.8 6338.5 1251.7 6339.7C1249.8 6341.9 1233.8 6364.2 1220.4 6383.5C1216.2 6389.6 1208 6401.2 1202.1 6409.3C1196.3 6417.4 1190.8 6425.2 1190 6426.5C1189.2 6427.8 1184.2 6434.8 1179 6441.9C1173.8 6449.1 1168.6 6456.5 1167.6 6458.3C1166.5 6460 1163.6 6464.2 1161 6467.5C1158.5 6470.8 1155.8 6474.5 1155 6475.7C1152.2 6479.8 1136.7 6501.5 1134 6505C1131.5 6508.3 1129 6512 1123 6521.1C1121.6 6523.2 1115.8 6531.3 1110.1 6539.2C1104.3 6547.1 1097.5 6556.6 1094.8 6560.5C1092.1 6564.4 1087.6 6570.7 1084.7 6574.6C1075.2 6587.6 1073.9 6589.4 1067.9 6598.5C1064.7 6603.4 1058.6 6612 1054.5 6617.5C1050.4 6623 1045.4 6630 1043.3 6633C1041.2 6636 1034.4 6645.6 1028.2 6654.3C1022.1 6663 1017 6670.3 1017 6670.6C1017 6671.5 1018.9 6670.8 1027.5 6666.6ZM1245.4 6319.8C1247.2 6316.9 1243.6 6311.9 1234.1 6303.6C1208.7 6281.3 1147.4 6263.4 1066.5 6254.5C1045.8 6252.3 1012.8 6251 975 6251C937.1 6251 914.3 6252.1 890.1 6254.9C881 6256 870.6 6257.1 867 6257.5C843.8 6259.7 784.5 6273.1 771.5 6279.1C769.3 6280.1 765.7 6281.4 763.5 6282.1C757.8 6283.8 744.6 6290 736.1 6295C727.8 6299.8 712 6314.8 712 6317.8C712 6319.2 712.9 6319.9 715.1 6320.4C716.8 6320.7 744.9 6321 777.5 6321L836.8 6321L840.3 6316.2C846 6308.5 853.9 6303.5 871.3 6296.6C877.7 6294.1 884.9 6291.8 887.2 6291.4C889.6 6291.1 893.8 6290.2 896.5 6289.4C899.2 6288.6 909.4 6286.7 919 6285.2C935.9 6282.6 938 6282.5 977.5 6282.5C1005.9 6282.5 1020.7 6282.9 1025.7 6283.8C1029.7 6284.4 1037.1 6285.4 1042.2 6286C1051.9 6287 1072.9 6291.6 1084 6295.2C1096.6 6299.2 1107.9 6305.8 1115.4 6313.4L1122.3 6320.5L1170.9 6321.1C1241.9 6321.9 1244.1 6321.8 1245.4 6319.8ZM1803.4 6317.8C1805.2 6314.9 1801.6 6309.9 1792.1 6301.6C1766.7 6279.3 1705.4 6261.4 1624.5 6252.5C1603.8 6250.3 1570.8 6249 1533 6249C1495.1 6249 1472.3 6250.1 1448.1 6252.9C1439 6254 1428.6 6255.1 1425 6255.5C1401.8 6257.7 1342.5 6271.1 1329.5 6277.1C1327.3 6278.1 1323.7 6279.4 1321.5 6280.1C1315.8 6281.8 1302.6 6288 1294.1 6293C1285.8 6297.8 1270 6312.8 1270 6315.8C1270 6317.2 1270.9 6317.9 1273.1 6318.4C1274.8 6318.7 1302.9 6319 1335.5 6319L1394.8 6319L1398.3 6314.2C1404 6306.5 1411.9 6301.5 1429.3 6294.6C1435.7 6292.1 1442.9 6289.8 1445.2 6289.4C1447.6 6289.1 1451.8 6288.2 1454.5 6287.4C1457.2 6286.6 1467.4 6284.7 1477 6283.2C1493.9 6280.6 1496 6280.5 1535.5 6280.5C1563.9 6280.5 1578.7 6280.9 1583.7 6281.8C1587.7 6282.4 1595.1 6283.4 1600.2 6284C1609.9 6285 1630.9 6289.6 1642 6293.2C1654.6 6297.2 1665.9 6303.8 1673.4 6311.4L1680.3 6318.5L1728.9 6319.1C1799.9 6319.9 1802.1 6319.8 1803.4 6317.8ZM1258.4 6309.4C1259.3 6309.1 1260 6308.4 1260 6307.9C1260 6307.4 1263.3 6302.6 1267.2 6297.2C1281.5 6277.8 1286.7 6270.5 1288 6268.1C1288.7 6266.7 1295 6257.9 1302.1 6248.4C1309.2 6238.9 1315 6230.8 1315 6230.4C1315 6229.6 1328 6211.2 1333 6205C1335 6202.5 1339.5 6196.2 1343 6191C1346.5 6185.8 1355.9 6172.3 1363.9 6161.2C1371.9 6150 1379.8 6138.9 1381.5 6136.5C1383.2 6134.2 1386.4 6129.6 1388.8 6126.4C1391.1 6123.1 1396 6116.2 1399.5 6111C1403.1 6105.8 1408.8 6097.6 1412.3 6092.8C1428.1 6070.6 1434.3 6061.8 1444.7 6046.7C1454.5 6032.5 1461.2 6023.2 1473.6 6006.5C1475.4 6004.2 1477.3 6001.2 1478 5999.9C1478.7 5998.6 1480.3 5996.4 1481.5 5995C1482.8 5993.6 1485.9 5989.4 1488.6 5985.5C1499.2 5970 1503.3 5964.2 1507.5 5958.5C1510 5955.2 1513.2 5950.5 1514.7 5948.1C1519.2 5940.7 1522.1 5941 1452.4 5941L1391.1 5941L1389.3 5938.4C1380.6 5926 1375.5 5922 1361.4 5916.6C1348.8 5911.8 1326.6 5906.6 1307.5 5904.1C1293.8 5902.3 1286.4 5902 1256.5 5902C1237.2 5902 1217.9 5902.4 1213.5 5903C1192.6 5905.5 1181.1 5907.2 1177 5908.5C1174.5 5909.3 1169.8 5910.4 1166.6 5911C1160.6 5912 1147.9 5916.5 1140.5 5920.2C1132.4 5924.3 1126.3 5929.7 1124.5 5934.4C1123.5 5936.9 1122 5939.2 1121.1 5939.7C1120.2 5940.1 1091.3 5940.6 1056.8 5940.8C1002.6 5941.1 994 5941.3 992.9 5942.6C991.9 5943.8 992.4 5945.2 996 5950.3C1003.4 5960.8 1018.1 5981.1 1023.9 5988.8C1027 5992.9 1029.9 5996.9 1030.5 5997.8C1031.7 5999.8 1034 6003.1 1051.9 6027.5C1059.1 6037.4 1067.2 6048.5 1069.8 6052.2C1072.4 6055.9 1077 6062.3 1080 6066.5C1083 6070.6 1087.1 6076.3 1089 6079.1C1090.9 6081.8 1094.3 6086.5 1096.5 6089.5C1098.7 6092.5 1103 6098.4 1106 6102.6C1109 6106.9 1115.4 6115.6 1120.1 6122C1124.8 6128.4 1132.9 6139.4 1137.9 6146.6C1143 6153.7 1149.8 6163.1 1153.1 6167.5C1160 6176.6 1165.2 6184 1169.5 6190.9C1171.2 6193.5 1174.8 6198.5 1177.6 6202.1C1183.7 6209.9 1194.6 6224.7 1198 6230C1199.4 6232.1 1205.9 6241.2 1212.5 6250.1C1219.1 6259 1225.2 6267.5 1226 6268.9C1227.6 6271.7 1256.1 6310 1256.6 6310C1256.7 6310 1257.5 6309.7 1258.4 6309.4ZM1521.4 5929.8C1523.2 5926.9 1519.6 5921.9 1510.1 5913.6C1484.7 5891.3 1423.4 5873.4 1342.5 5864.5C1321.8 5862.3 1288.8 5861 1251 5861C1213.1 5861 1190.3 5862.1 1166.1 5864.9C1157 5866 1146.6 5867.1 1143 5867.5C1119.8 5869.7 1060.5 5883.1 1047.5 5889.1C1045.3 5890.1 1041.7 5891.4 1039.5 5892.1C1033.8 5893.8 1020.6 5900 1012.1 5905C1003.8 5909.8 988 5924.8 988 5927.8C988 5929.2 988.9 5929.9 991.1 5930.4C992.8 5930.7 1020.9 5931 1053.5 5931L1112.8 5931L1116.3 5926.2C1122 5918.5 1129.9 5913.5 1147.3 5906.6C1153.7 5904.1 1160.9 5901.8 1163.2 5901.4C1165.6 5901.1 1169.8 5900.2 1172.5 5899.4C1175.2 5898.6 1185.4 5896.7 1195 5895.2C1211.9 5892.6 1214 5892.5 1253.5 5892.5C1281.9 5892.5 1296.7 5892.9 1301.7 5893.8C1305.7 5894.4 1313.1 5895.4 1318.2 5896C1327.9 5897 1348.9 5901.6 1360 5905.2C1372.6 5909.2 1383.9 5915.8 1391.4 5923.4L1398.3 5930.5L1446.9 5931.1C1517.9 5931.9 1520.1 5931.8 1521.4 5929.8ZM1049.2 5223.3L0 5223L0 5211.5L0 5200L1209.2 5200C1874.3 5200 2437.7 5200.3 2461.2 5200.7L2504 5201.3L2504 5212.7L2504 5224L2301.2 5223.8C2189.7 5223.6 1626.3 5223.4 1049.2 5223.3ZM649.6 4617.5C648.1 4616.1 646.2 4613.4 645.4 4611.3C644.5 4609.3 642.5 4606.1 640.9 4604.1C636.7 4598.8 625.4 4583.4 620.7 4576.5C618.5 4573.2 614.4 4567.6 611.6 4564C608.8 4560.4 605.2 4555.5 603.5 4553C601.9 4550.5 599.6 4547.4 598.4 4546C597.1 4544.6 594 4540.3 591.3 4536.3C588.7 4532.4 580.3 4520.7 572.8 4510.3C556.8 4488.5 534.6 4457.6 529.8 4450.7C528 4448 521.5 4439.2 515.5 4430.9C509.4 4422.7 498.9 4408.1 492 4398.4C485.1 4388.7 476.8 4377.2 473.5 4372.7C464.8 4361.1 452.1 4343.5 441.2 4328C436 4320.6 429.9 4312.2 427.6 4309.5C425.3 4306.8 422.2 4302.7 420.7 4300.5C419.3 4298.3 416.2 4294 414 4291C411.8 4288 408.4 4283.2 406.5 4280.5C404.6 4277.8 401.3 4273 399 4270C396.8 4267 394.2 4263.2 393.3 4261.6C392.3 4260 389.9 4256.8 388 4254.4C376.2 4239.7 371 4231.5 371 4227.5C371 4223.2 374.1 4214.8 377.9 4208.9C379.4 4206.4 385.1 4200.8 390.3 4196.3C407.7 4181.9 435.6 4170.1 475 4160.6C485.2 4158.1 496.6 4155.6 500.5 4155C504.4 4154.3 512 4153 517.5 4151.9C523 4150.9 531.8 4149.6 537 4149C542.2 4148.4 551.2 4147.3 557 4146.5C583.7 4142.8 646 4141.1 692.4 4142.9C709.4 4143.6 726.7 4144.5 730.9 4145.1C735.1 4145.6 747 4146.9 757.5 4148C768 4149.2 779.6 4150.7 783.5 4151.5C787.4 4152.2 792.5 4153.1 795 4153.5C806.8 4155.1 839.9 4163.1 855.4 4168.1C871.9 4173.3 893.3 4182.7 901.9 4188.5C905.8 4191 912.6 4196.5 917 4200.6C925.8 4209 929.7 4215.5 930.7 4223.7C931.2 4228.2 930.9 4229.5 928.5 4233.7C927 4236.3 924.9 4239.5 923.8 4240.7C921.8 4242.9 906.1 4264.8 892.4 4284.5C888.2 4290.6 880 4302.2 874.1 4310.3C868.3 4318.4 862.8 4326.2 862 4327.5C861.2 4328.8 856.2 4335.8 851 4342.9C845.8 4350.1 840.6 4357.5 839.6 4359.3C838.5 4361 835.6 4365.2 833 4368.5C830.5 4371.8 827.8 4375.5 827 4376.7C824.2 4380.8 808.7 4402.5 806 4406C803.5 4409.3 801 4413 795 4422.1C793.6 4424.2 787.8 4432.3 782.1 4440.2C776.3 4448.1 769.5 4457.6 766.8 4461.5C764.1 4465.4 759.6 4471.7 756.7 4475.6C747.2 4488.6 745.9 4490.4 739.9 4499.5C736.7 4504.4 730.6 4513 726.5 4518.5C722.4 4524 716.7 4531.9 713.9 4536C711 4540.1 704.4 4549.6 699.1 4557C693.8 4564.4 689 4571.3 688.5 4572.2C688 4573.1 683.5 4579.4 678.5 4586.2C667.9 4600.6 663.7 4607.3 662.1 4612.3C660.8 4616.2 656.8 4620 654 4620C653.1 4620 651.1 4618.9 649.6 4617.5ZM654.4 4600.4C655.3 4600.1 656 4599.4 656 4598.9C656 4598.4 659.3 4593.6 663.2 4588.2C677.5 4568.8 682.7 4561.5 684 4559.1C684.7 4557.7 691 4548.9 698.1 4539.4C705.2 4529.9 711 4521.8 711 4521.4C711 4520.6 724 4502.2 729 4496C731 4493.5 735.5 4487.2 739 4482C742.5 4476.8 751.9 4463.3 759.9 4452.2C767.9 4441 775.9 4429.9 777.5 4427.5C779.1 4425.2 782.4 4420.6 784.8 4417.4C787.1 4414.1 792 4407.2 795.5 4402C799.1 4396.8 804.8 4388.6 808.3 4383.8C824.1 4361.6 830.3 4352.8 840.7 4337.7C850.5 4323.5 857.2 4314.2 869.6 4297.5C871.4 4295.2 873.3 4292.2 874 4290.9C874.7 4289.6 876.3 4287.4 877.5 4286C878.8 4284.6 881.9 4280.4 884.6 4276.5C895.2 4261 899.3 4255.2 903.5 4249.5C906 4246.2 909.2 4241.5 910.7 4239.1C915.2 4231.7 918.2 4232 848 4232L786.3 4232L781.9 4225.3C776.5 4217.1 770.1 4212.5 757.5 4207.6C745 4202.9 723.8 4197.7 711.5 4196.4C708.2 4196.1 703.7 4195.4 701.5 4194.8C695.9 4193.3 621.8 4192.6 610.5 4193.9C590 4196.2 577.2 4198.2 573 4199.5C570.5 4200.3 565.8 4201.4 562.6 4201.9C552.1 4203.8 536.2 4210.5 527.8 4216.7C523 4220.3 521.9 4221.7 520.9 4225.4C520.3 4227.9 519.1 4230.2 518.1 4230.6C517.2 4231.1 488.1 4231.7 453.3 4232C404.9 4232.4 389.8 4232.8 388.9 4233.7C387.9 4234.7 388.7 4236.6 393 4242.7C395.9 4247 399.7 4252.3 401.5 4254.5C403.2 4256.7 407.3 4262.3 410.5 4267C413.7 4271.7 418.7 4278.5 421.7 4282.2C424.6 4285.9 427 4289.2 427 4289.6C427 4290 428.7 4292.6 430.9 4295.4C436 4302.2 459.8 4334.7 465.8 4343.2C468.4 4346.9 473 4353.3 476 4357.5C479 4361.6 483.1 4367.3 485 4370.1C486.9 4372.8 490.3 4377.5 492.5 4380.5C494.7 4383.5 499 4389.4 502 4393.6C505 4397.9 511.4 4406.6 516.1 4413C520.8 4419.4 528.9 4430.4 533.9 4437.6C539 4444.7 545.8 4454.1 549.1 4458.5C556 4467.6 561.2 4475 565.5 4481.9C567.2 4484.5 570.8 4489.5 573.6 4493.1C579.7 4500.9 590.6 4515.7 594 4521C595.4 4523.1 601.9 4532.2 608.5 4541.1C615.1 4550 621.2 4558.5 622 4559.9C623.6 4562.7 652.1 4601 652.6 4601C652.7 4601 653.5 4600.7 654.4 4600.4ZM1131.6 4213.5C1130.1 4212.1 1128.2 4209.4 1127.4 4207.3C1126.5 4205.3 1124.5 4202.1 1122.9 4200.1C1118.7 4194.8 1107.4 4179.4 1102.7 4172.5C1100.5 4169.2 1096.4 4163.6 1093.6 4160C1090.8 4156.4 1087.2 4151.5 1085.5 4149C1083.9 4146.5 1081.6 4143.4 1080.4 4142C1079.1 4140.6 1076 4136.3 1073.3 4132.3C1070.7 4128.4 1062.3 4116.7 1054.8 4106.3C1038.8 4084.5 1016.6 4053.6 1011.8 4046.7C1010 4044 1003.5 4035.2 997.5 4026.9C991.5 4018.7 980.9 4004.1 974 3994.4C967.1 3984.7 958.8 3973.2 955.5 3968.7C946.8 3957.1 934.1 3939.5 923.2 3924C918 3916.6 911.9 3908.2 909.6 3905.5C907.3 3902.8 904.2 3898.7 902.7 3896.5C901.3 3894.3 898.2 3890 896 3887C893.8 3884 890.4 3879.2 888.5 3876.5C886.6 3873.8 883.3 3869 881 3866C878.8 3863 876.2 3859.2 875.3 3857.6C874.3 3856 871.9 3852.8 870 3850.4C858.2 3835.7 853 3827.5 853 3823.5C853 3819.2 856.1 3810.8 859.9 3804.9C861.4 3802.4 867.1 3796.8 872.3 3792.3C889.7 3777.9 917.6 3766.1 957 3756.6C967.2 3754.1 978.6 3751.6 982.5 3751C986.4 3750.3 994 3749 999.5 3747.9C1005 3746.9 1013.8 3745.6 1019 3745C1024.2 3744.4 1033.2 3743.3 1039 3742.5C1065.7 3738.8 1128 3737.1 1174.4 3738.9C1191.4 3739.6 1208.7 3740.5 1212.9 3741.1C1217.1 3741.6 1229 3742.9 1239.5 3744C1250 3745.2 1261.7 3746.7 1265.5 3747.5C1269.3 3748.2 1274.5 3749.1 1277 3749.5C1288.2 3751 1321.2 3758.9 1336.1 3763.6C1348.6 3767.5 1371 3776.7 1377.9 3780.7L1382.2 3783.2L1380.4 3780C1379.3 3778.3 1375.7 3773.2 1372.2 3768.7C1368.8 3764.2 1364.3 3758 1362.3 3755C1360.3 3752 1357.6 3748.4 1356.4 3747C1355.1 3745.6 1352 3741.3 1349.3 3737.3C1346.7 3733.4 1338.3 3721.7 1330.8 3711.3C1314.8 3689.5 1292.6 3658.6 1287.8 3651.7C1286 3649 1279.5 3640.2 1273.5 3631.9C1267.5 3623.7 1256.9 3609.1 1250 3599.4C1243.1 3589.7 1234.8 3578.2 1231.5 3573.7C1222.8 3562.1 1210.1 3544.5 1199.2 3529C1194 3521.6 1187.9 3513.2 1185.6 3510.5C1183.3 3507.8 1180.2 3503.7 1178.7 3501.5C1177.3 3499.3 1174.2 3495 1172 3492C1169.8 3489 1166.4 3484.2 1164.5 3481.5C1162.6 3478.8 1159.3 3474 1157 3471C1154.8 3468 1152.2 3464.2 1151.3 3462.6C1150.3 3461 1147.9 3457.8 1146 3455.4C1134.2 3440.7 1129 3432.5 1129 3428.5C1129 3424.2 1132.1 3415.8 1135.9 3409.9C1137.4 3407.4 1143.1 3401.8 1148.3 3397.3C1165.7 3382.9 1193.6 3371.1 1233 3361.6C1243.2 3359.1 1254.7 3356.6 1258.5 3356C1262.3 3355.3 1270 3354 1275.5 3352.9C1281 3351.9 1289.8 3350.6 1295 3350C1300.2 3349.4 1309.2 3348.3 1315 3347.5C1341.7 3343.8 1404 3342.1 1450.4 3343.9C1467.4 3344.6 1484.7 3345.5 1488.9 3346.1C1493.1 3346.6 1505 3347.9 1515.5 3349C1526 3350.2 1537.7 3351.7 1541.5 3352.5C1545.3 3353.2 1550.5 3354.1 1553 3354.5C1564.8 3356.1 1597.9 3364.1 1613.4 3369.1C1629.9 3374.3 1651.3 3383.7 1659.9 3389.5C1663.8 3392 1670.6 3397.5 1675 3401.6C1683.8 3410 1687.7 3416.5 1688.7 3424.7C1689.2 3429.2 1688.9 3430.5 1686.5 3434.7C1685 3437.3 1682.9 3440.5 1681.8 3441.7C1679.8 3443.9 1664.1 3465.8 1650.4 3485.5C1646.2 3491.6 1638 3503.2 1632.1 3511.3C1626.3 3519.4 1620.8 3527.2 1620 3528.5C1619.2 3529.8 1614.2 3536.8 1609 3543.9C1603.8 3551.1 1598.6 3558.5 1597.6 3560.3C1596.5 3562 1593.6 3566.2 1591 3569.5C1588.5 3572.8 1585.8 3576.5 1585 3577.7C1582.2 3581.8 1566.7 3603.5 1564 3607C1561.5 3610.3 1559 3614 1553 3623.1C1551.6 3625.2 1545.8 3633.3 1540.1 3641.2C1534.3 3649.1 1527.5 3658.7 1524.8 3662.5C1522.1 3666.3 1517.6 3672.7 1514.7 3676.6C1505.2 3689.6 1503.9 3691.4 1497.9 3700.5C1494.7 3705.4 1488.6 3714 1484.5 3719.5C1480.4 3725 1474.7 3732.9 1471.9 3737C1469 3741.1 1462.4 3750.6 1457.1 3758C1451.8 3765.4 1447 3772.2 1446.5 3773.2C1446 3774.1 1443.8 3777.2 1441.7 3780L1438 3785L1441.7 3782.7C1450.2 3777.5 1467.4 3769.8 1481.5 3765.1C1496.6 3760 1527.5 3752.1 1540.5 3750C1544.3 3749.3 1552 3748 1557.5 3746.9C1563 3745.9 1571.8 3744.6 1577 3744C1582.2 3743.4 1591.2 3742.3 1597 3741.5C1623.7 3737.8 1686 3736.1 1732.4 3737.9C1749.4 3738.6 1766.7 3739.5 1770.9 3740.1C1775.1 3740.6 1787 3741.9 1797.5 3743C1808 3744.2 1819.7 3745.7 1823.5 3746.5C1827.3 3747.2 1832.5 3748.1 1835 3748.5C1846.8 3750.1 1879.9 3758.1 1895.4 3763.1C1911.9 3768.3 1933.3 3777.7 1941.9 3783.5C1945.8 3786 1952.6 3791.5 1957 3795.6C1965.8 3804 1969.7 3810.5 1970.7 3818.7C1971.2 3823.2 1970.9 3824.5 1968.5 3828.7C1967 3831.3 1964.9 3834.5 1963.8 3835.7C1961.8 3837.9 1946.1 3859.8 1932.4 3879.5C1928.2 3885.6 1920 3897.2 1914.1 3905.3C1908.3 3913.4 1902.8 3921.2 1902 3922.5C1901.2 3923.8 1896.2 3930.8 1891 3937.9C1885.8 3945.1 1880.6 3952.5 1879.6 3954.3C1878.5 3956 1875.6 3960.2 1873 3963.5C1870.5 3966.8 1867.8 3970.5 1867 3971.7C1864.2 3975.8 1848.7 3997.5 1846 4001C1843.5 4004.3 1841 4008 1835 4017.1C1833.6 4019.2 1827.8 4027.3 1822.1 4035.2C1816.3 4043.1 1809.5 4052.7 1806.8 4056.5C1804.1 4060.3 1799.6 4066.7 1796.7 4070.6C1787.2 4083.6 1785.9 4085.4 1779.9 4094.5C1776.7 4099.4 1770.6 4108 1766.5 4113.5C1762.4 4119 1756.7 4126.9 1753.9 4131C1751 4135.1 1744.4 4144.6 1739.1 4152C1733.8 4159.4 1729 4166.3 1728.5 4167.2C1728 4168.1 1723.5 4174.4 1718.5 4181.2C1707.9 4195.6 1703.7 4202.3 1702.1 4207.3C1700.8 4211.2 1696.8 4215 1694 4215C1691.5 4215 1687.1 4210.6 1685.4 4206.3C1684.5 4204.3 1682.5 4201.1 1680.9 4199.1C1676.7 4193.8 1665.4 4178.4 1660.7 4171.5C1658.5 4168.2 1654.4 4162.6 1651.6 4159C1648.8 4155.4 1645.2 4150.5 1643.5 4148C1641.9 4145.5 1639.6 4142.4 1638.4 4141C1637.1 4139.6 1634 4135.3 1631.3 4131.3C1628.7 4127.4 1620.3 4115.7 1612.8 4105.3C1596.8 4083.5 1574.6 4052.6 1569.8 4045.7C1568 4043 1561.5 4034.2 1555.5 4025.9C1549.5 4017.7 1538.9 4003.1 1532 3993.4C1525.1 3983.7 1516.8 3972.2 1513.5 3967.7C1504.8 3956.1 1492.1 3938.5 1481.2 3923C1476 3915.6 1469.9 3907.2 1467.6 3904.5C1465.3 3901.8 1462.2 3897.7 1460.7 3895.5C1459.3 3893.3 1456.2 3889 1454 3886C1451.8 3883 1448.4 3878.2 1446.5 3875.5C1444.6 3872.8 1441.3 3868 1439 3865C1436.8 3862 1434.2 3858.2 1433.3 3856.6C1432.3 3855 1429.9 3851.8 1428 3849.5C1424.8 3845.6 1415.2 3832.6 1412.9 3829C1412.1 3827.7 1411.9 3827.7 1411.1 3829C1410.6 3829.8 1409.1 3831.9 1407.8 3833.7C1406.5 3835.5 1401.7 3842.2 1397.1 3848.7C1392.5 3855.2 1386.4 3863.7 1383.5 3867.5C1380.7 3871.3 1375.7 3878.3 1372.5 3883C1369.3 3887.7 1361.9 3898.2 1356.1 3906.3C1350.3 3914.4 1344.8 3922.2 1344 3923.5C1343.2 3924.8 1338.2 3931.8 1333 3938.9C1327.8 3946.1 1322.6 3953.5 1321.6 3955.3C1320.5 3957 1317.6 3961.2 1315 3964.5C1312.5 3967.8 1309.8 3971.5 1309 3972.7C1306.2 3976.8 1290.7 3998.5 1288 4002C1285.5 4005.3 1283 4009 1277 4018.1C1275.6 4020.2 1269.8 4028.3 1264.1 4036.2C1258.3 4044.1 1251.5 4053.7 1248.8 4057.5C1246.1 4061.3 1241.6 4067.7 1238.7 4071.6C1229.2 4084.6 1227.9 4086.4 1221.9 4095.5C1218.7 4100.4 1212.6 4109 1208.5 4114.5C1204.4 4120 1198.7 4127.9 1195.9 4132C1193 4136.1 1186.4 4145.6 1181.1 4153C1175.8 4160.4 1171 4167.3 1170.5 4168.2C1170 4169.1 1165.5 4175.4 1160.5 4182.2C1149.9 4196.6 1145.7 4203.3 1144.1 4208.3C1142.8 4212.2 1138.8 4216 1136 4216C1135.1 4216 1133.1 4214.9 1131.6 4213.5ZM1136.4 4196.4C1137.3 4196.1 1138 4195.4 1138 4194.9C1138 4194.4 1141.3 4189.6 1145.2 4184.2C1159.5 4164.8 1164.7 4157.5 1166 4155.1C1166.7 4153.7 1173 4144.9 1180.1 4135.4C1187.2 4125.9 1193 4117.8 1193 4117.4C1193 4116.6 1206 4098.2 1211 4092C1213 4089.5 1217.5 4083.2 1221 4078C1224.5 4072.8 1233.9 4059.3 1241.9 4048.2C1249.9 4037 1257.8 4025.9 1259.5 4023.5C1261.2 4021.2 1264.4 4016.6 1266.8 4013.4C1269.1 4010.1 1274 4003.2 1277.5 3998C1281.1 3992.8 1286.8 3984.6 1290.3 3979.8C1306.1 3957.6 1312.3 3948.8 1322.7 3933.7C1332.5 3919.5 1339.2 3910.2 1351.6 3893.5C1353.4 3891.2 1355.3 3888.2 1356 3886.9C1356.7 3885.6 1358.3 3883.4 1359.5 3882C1360.8 3880.6 1363.9 3876.3 1366.6 3872.5C1377.2 3857 1381.3 3851.2 1385.5 3845.5C1388 3842.2 1391.2 3837.5 1392.7 3835.1C1397.2 3827.7 1400.1 3828 1330.4 3828L1269.1 3828L1267.3 3825.4C1258.6 3813 1253.5 3809 1239.4 3803.6C1226.8 3798.8 1204.6 3793.6 1185.5 3791.1C1171.8 3789.3 1164.4 3789 1134.5 3789C1115.2 3789 1095.9 3789.4 1091.5 3790C1070.6 3792.5 1059.1 3794.2 1055 3795.5C1052.5 3796.3 1047.8 3797.4 1044.6 3798C1038.6 3799 1025.9 3803.5 1018.5 3807.2C1010.4 3811.3 1004.3 3816.7 1002.5 3821.4C1001.5 3823.9 1000 3826.2 999.1 3826.7C998.2 3827.1 969.3 3827.6 934.8 3827.8C880.6 3828.1 872 3828.3 870.9 3829.6C869.9 3830.8 870.4 3832.2 874 3837.3C881.4 3847.8 896.1 3868.1 901.9 3875.8C905 3879.9 907.9 3883.9 908.5 3884.8C909.7 3886.8 912 3890.1 929.9 3914.5C937.1 3924.4 945.2 3935.5 947.8 3939.2C950.4 3942.9 955 3949.3 958 3953.5C961 3957.6 965.1 3963.3 967 3966.1C968.9 3968.8 972.3 3973.5 974.5 3976.5C976.7 3979.5 981 3985.4 984 3989.6C987 3993.9 993.4 4002.6 998.1 4009C1002.8 4015.4 1010.9 4026.4 1015.9 4033.6C1021 4040.7 1027.8 4050.1 1031.1 4054.5C1038 4063.6 1043.2 4071 1047.5 4077.9C1049.2 4080.5 1052.8 4085.5 1055.6 4089.1C1061.7 4096.9 1072.6 4111.7 1076 4117C1077.4 4119.1 1083.9 4128.2 1090.5 4137.1C1097.1 4146 1103.2 4154.5 1104 4155.9C1105.6 4158.7 1134.1 4197 1134.6 4197C1134.7 4197 1135.5 4196.7 1136.4 4196.4ZM1694.4 4195.4C1695.3 4195.1 1696 4194.4 1696 4193.9C1696 4193.4 1699.3 4188.6 1703.2 4183.2C1717.5 4163.8 1722.7 4156.5 1724 4154.1C1724.7 4152.7 1731 4143.9 1738.1 4134.4C1745.2 4124.9 1751 4116.8 1751 4116.4C1751 4115.6 1764 4097.2 1769 4091C1771 4088.5 1775.5 4082.2 1779 4077C1782.5 4071.8 1791.9 4058.3 1799.9 4047.2C1807.9 4036 1815.8 4024.9 1817.5 4022.5C1819.2 4020.2 1822.4 4015.6 1824.8 4012.4C1827.1 4009.1 1832 4002.2 1835.5 3997C1839.1 3991.8 1844.8 3983.6 1848.3 3978.8C1864.1 3956.6 1870.3 3947.8 1880.7 3932.7C1890.5 3918.5 1897.2 3909.2 1909.6 3892.5C1911.4 3890.2 1913.3 3887.2 1914 3885.9C1914.7 3884.6 1916.3 3882.4 1917.5 3881C1918.8 3879.6 1921.9 3875.3 1924.6 3871.5C1935.2 3856 1939.3 3850.2 1943.5 3844.5C1946 3841.2 1949.2 3836.5 1950.7 3834.1C1955.2 3826.7 1958.1 3827 1888.4 3827L1827.1 3827L1825.3 3824.4C1816.6 3812 1811.5 3808 1797.4 3802.6C1784.8 3797.8 1762.6 3792.6 1743.5 3790.1C1729.8 3788.3 1722.4 3788 1692.5 3788C1673.2 3788 1653.9 3788.4 1649.5 3789C1628.6 3791.5 1617.1 3793.2 1613 3794.5C1610.5 3795.3 1605.8 3796.4 1602.6 3797C1596.6 3798 1583.9 3802.5 1576.5 3806.2C1568.4 3810.3 1562.3 3815.7 1560.5 3820.4C1559.5 3822.9 1558 3825.2 1557.1 3825.7C1556.2 3826.1 1527.3 3826.6 1492.8 3826.8C1438.6 3827.1 1430 3827.3 1428.9 3828.6C1427.9 3829.8 1428.4 3831.2 1432 3836.3C1439.4 3846.8 1454.1 3867.1 1459.9 3874.8C1463 3878.9 1465.9 3882.9 1466.5 3883.8C1467.7 3885.8 1470 3889.1 1487.9 3913.5C1495.1 3923.4 1503.2 3934.5 1505.8 3938.2C1508.4 3941.9 1513 3948.3 1516 3952.5C1519 3956.6 1523.1 3962.3 1525 3965.1C1526.9 3967.8 1530.3 3972.5 1532.5 3975.5C1534.7 3978.5 1539 3984.4 1542 3988.6C1545 3992.9 1551.4 4001.6 1556.1 4008C1560.8 4014.4 1568.9 4025.4 1573.9 4032.6C1579 4039.7 1585.8 4049.1 1589.1 4053.5C1596 4062.6 1601.2 4070 1605.5 4076.9C1607.2 4079.5 1610.8 4084.5 1613.6 4088.1C1619.7 4095.9 1630.6 4110.7 1634 4116C1635.4 4118.1 1641.9 4127.2 1648.5 4136.1C1655.1 4145 1661.2 4153.5 1662 4154.9C1663.6 4157.7 1692.1 4196 1692.6 4196C1692.7 4196 1693.5 4195.7 1694.4 4195.4ZM1399.4 3816.8C1401.2 3813.9 1397.6 3808.9 1388.1 3800.6C1362.7 3778.3 1301.4 3760.4 1220.5 3751.5C1199.8 3749.3 1166.8 3748 1129 3748C1091.1 3748 1068.3 3749.1 1044.1 3751.9C1035 3753 1024.6 3754.1 1021 3754.5C997.8 3756.7 938.5 3770.1 925.5 3776.1C923.3 3777.1 919.7 3778.4 917.5 3779.1C911.8 3780.8 898.6 3787 890.1 3792C881.8 3796.8 866 3811.8 866 3814.8C866 3816.2 866.9 3816.9 869.1 3817.4C870.8 3817.7 898.9 3818 931.5 3818L990.8 3818L994.3 3813.2C1000 3805.5 1007.9 3800.5 1025.3 3793.6C1031.7 3791.1 1038.9 3788.8 1041.2 3788.4C1043.6 3788.1 1047.8 3787.2 1050.5 3786.4C1053.2 3785.6 1063.4 3783.7 1073 3782.2C1089.9 3779.6 1092 3779.5 1131.5 3779.5C1159.9 3779.5 1174.7 3779.9 1179.7 3780.8C1183.7 3781.4 1191.1 3782.4 1196.2 3783C1205.9 3784 1226.9 3788.6 1238 3792.2C1250.6 3796.2 1261.9 3802.8 1269.4 3810.4L1276.3 3817.5L1324.9 3818.1C1395.9 3818.9 1398.1 3818.8 1399.4 3816.8ZM1957.4 3815.8C1959.2 3812.9 1955.6 3807.9 1946.1 3799.6C1920.7 3777.3 1859.4 3759.4 1778.5 3750.5C1757.8 3748.3 1724.8 3747 1687 3747C1649.1 3747 1626.3 3748.1 1602.1 3750.9C1593 3752 1582.6 3753.1 1579 3753.5C1555.8 3755.7 1496.5 3769.1 1483.5 3775.1C1481.3 3776.1 1477.7 3777.4 1475.5 3778.1C1469.8 3779.8 1456.6 3786 1448.1 3791C1439.8 3795.8 1424 3810.8 1424 3813.8C1424 3815.2 1424.9 3815.9 1427.1 3816.4C1428.8 3816.7 1456.9 3817 1489.5 3817L1548.8 3817L1552.3 3812.2C1558 3804.5 1565.9 3799.5 1583.3 3792.6C1589.7 3790.1 1596.9 3787.8 1599.2 3787.4C1601.6 3787.1 1605.8 3786.2 1608.5 3785.4C1611.2 3784.6 1621.4 3782.7 1631 3781.2C1647.9 3778.6 1650 3778.5 1689.5 3778.5C1717.9 3778.5 1732.7 3778.9 1737.7 3779.8C1741.7 3780.4 1749.1 3781.4 1754.2 3782C1763.9 3783 1784.9 3787.6 1796 3791.2C1808.6 3795.2 1819.9 3801.8 1827.4 3809.4L1834.3 3816.5L1882.9 3817.1C1953.9 3817.9 1956.1 3817.8 1957.4 3815.8ZM1412.4 3801.4C1413.3 3801.1 1414 3800.4 1414 3799.9C1414 3799.4 1417.3 3794.6 1421.2 3789.2C1435.5 3769.8 1440.7 3762.5 1442 3760.1C1442.7 3758.7 1449 3749.9 1456.1 3740.4C1463.2 3730.9 1469 3722.8 1469 3722.4C1469 3721.6 1482 3703.2 1487 3697C1489 3694.5 1493.5 3688.2 1497 3683C1500.5 3677.8 1509.9 3664.3 1517.9 3653.2C1525.9 3642 1533.8 3630.9 1535.5 3628.5C1537.2 3626.2 1540.4 3621.6 1542.8 3618.4C1545.1 3615.1 1550 3608.2 1553.5 3603C1557.1 3597.8 1562.8 3589.6 1566.3 3584.8C1582.1 3562.6 1588.3 3553.8 1598.7 3538.7C1608.5 3524.5 1615.2 3515.2 1627.6 3498.5C1629.4 3496.2 1631.3 3493.2 1632 3491.9C1632.7 3490.6 1634.3 3488.4 1635.5 3487C1636.8 3485.6 1639.9 3481.3 1642.6 3477.5C1653.2 3462 1657.3 3456.2 1661.5 3450.5C1664 3447.2 1667.2 3442.5 1668.7 3440.1C1673.2 3432.7 1676.1 3433 1606.4 3433L1545.1 3433L1543.3 3430.4C1534.6 3418 1529.5 3414 1515.4 3408.6C1502.8 3403.8 1480.6 3398.6 1461.5 3396.1C1447.8 3394.3 1440.4 3394 1410.5 3394C1391.2 3394 1371.9 3394.4 1367.5 3395C1346.6 3397.5 1335.1 3399.2 1331 3400.5C1328.5 3401.3 1323.8 3402.4 1320.6 3403C1314.6 3404 1301.9 3408.5 1294.5 3412.2C1286.4 3416.3 1280.3 3421.7 1278.5 3426.4C1277.5 3428.9 1276 3431.2 1275.1 3431.7C1274.2 3432.1 1245.3 3432.6 1210.8 3432.8C1156.6 3433.1 1148 3433.3 1146.9 3434.6C1145.9 3435.8 1146.4 3437.2 1150 3442.3C1157.4 3452.8 1172.1 3473.1 1177.9 3480.8C1181 3484.9 1183.9 3488.9 1184.5 3489.8C1185.7 3491.8 1188 3495.1 1205.9 3519.5C1213.1 3529.4 1221.2 3540.5 1223.8 3544.2C1226.4 3547.9 1231 3554.3 1234 3558.5C1237 3562.6 1241.1 3568.3 1243 3571.1C1244.9 3573.8 1248.3 3578.5 1250.5 3581.5C1252.7 3584.5 1257 3590.4 1260 3594.6C1263 3598.9 1269.4 3607.6 1274.1 3614C1278.8 3620.4 1286.9 3631.4 1291.9 3638.6C1297 3645.7 1303.8 3655.1 1307.1 3659.5C1314 3668.6 1319.2 3676 1323.5 3682.9C1325.2 3685.5 1328.8 3690.5 1331.6 3694.1C1337.7 3701.9 1348.6 3716.7 1352 3722C1353.4 3724.1 1359.9 3733.2 1366.5 3742.1C1373.1 3751 1379.2 3759.5 1380 3760.9C1381.6 3763.7 1410.1 3802 1410.6 3802C1410.7 3802 1411.5 3801.7 1412.4 3801.4ZM1675.4 3421.8C1677.2 3418.9 1673.6 3413.9 1664.1 3405.6C1638.7 3383.3 1577.4 3365.4 1496.5 3356.5C1475.8 3354.3 1442.8 3353 1405 3353C1367.1 3353 1344.3 3354.1 1320.1 3356.9C1311 3358 1300.6 3359.1 1297 3359.5C1273.8 3361.7 1214.5 3375.1 1201.5 3381.1C1199.3 3382.1 1195.7 3383.4 1193.5 3384.1C1187.8 3385.8 1174.6 3392 1166.1 3397C1157.8 3401.8 1142 3416.8 1142 3419.8C1142 3421.2 1142.9 3421.9 1145.1 3422.4C1146.8 3422.7 1174.9 3423 1207.5 3423L1266.8 3423L1270.3 3418.2C1276 3410.5 1283.9 3405.5 1301.3 3398.6C1307.7 3396.1 1314.9 3393.8 1317.2 3393.4C1319.6 3393.1 1323.8 3392.2 1326.5 3391.4C1329.2 3390.6 1339.4 3388.7 1349 3387.2C1365.9 3384.6 1368 3384.5 1407.5 3384.5C1435.9 3384.5 1450.7 3384.9 1455.7 3385.8C1459.7 3386.4 1467.1 3387.4 1472.2 3388C1481.9 3389 1502.9 3393.6 1514 3397.2C1526.6 3401.2 1537.9 3407.8 1545.4 3415.4L1552.3 3422.5L1600.9 3423.1C1671.9 3423.9 1674.1 3423.8 1675.4 3421.8ZM0 2653L0 2642L1252 2642L2504 2642L2504 2653L2504 2664L1252 2664L0 2664L0 2653ZM987.6 1834.5C986.1 1833.1 984.2 1830.4 983.4 1828.3C982.5 1826.3 980.5 1823.1 978.9 1821.1C974.7 1815.8 963.4 1800.4 958.7 1793.5C956.5 1790.2 952.4 1784.6 949.6 1781C946.8 1777.4 943.2 1772.5 941.5 1770C939.9 1767.5 937.6 1764.4 936.4 1763C935.1 1761.6 932 1757.3 929.3 1753.3C926.7 1749.4 918.3 1737.7 910.8 1727.3C894.8 1705.5 872.6 1674.6 867.8 1667.7C866 1665 859.5 1656.2 853.5 1647.9C847.5 1639.7 836.9 1625.1 830 1615.4C823.1 1605.7 814.8 1594.2 811.5 1589.7C802.8 1578.1 790.1 1560.5 779.2 1545C774 1537.6 767.9 1529.2 765.6 1526.5C763.3 1523.8 760.2 1519.7 758.7 1517.5C757.3 1515.3 754.2 1511 752 1508C749.8 1505 746.4 1500.2 744.5 1497.5C742.6 1494.8 739.3 1490 737 1487C734.8 1484 732.2 1480.2 731.3 1478.6C730.3 1477 727.9 1473.8 726 1471.4C714.2 1456.7 709 1448.5 709 1444.5C709 1440.2 712.1 1431.8 715.9 1425.9C717.4 1423.4 723.1 1417.8 728.3 1413.3C745.7 1398.9 773.6 1387.1 813 1377.6C823.2 1375.1 834.6 1372.6 838.5 1372C842.4 1371.3 850 1370 855.5 1368.9C861 1367.9 869.8 1366.6 875 1366C880.2 1365.4 889.2 1364.3 895 1363.5C921.7 1359.8 984 1358.1 1030.4 1359.9C1047.4 1360.6 1064.7 1361.5 1068.9 1362.1C1073.1 1362.6 1085 1363.9 1095.5 1365C1106 1366.2 1117.7 1367.7 1121.5 1368.5C1125.3 1369.2 1130.5 1370.1 1133 1370.5C1135.5 1370.8 1141.8 1372 1147 1373.2C1180.4 1380.4 1198.7 1385.9 1219.4 1394.9L1233.2 1400.9L1230.4 1397.2C1228.9 1395.2 1226 1391.5 1224 1389C1222.1 1386.5 1219.1 1382.5 1217.5 1380C1215.9 1377.5 1213.6 1374.4 1212.4 1373C1211.1 1371.6 1208 1367.3 1205.3 1363.3C1202.7 1359.4 1194.3 1347.7 1186.8 1337.3C1170.8 1315.5 1148.6 1284.6 1143.8 1277.7C1142 1275 1135.5 1266.2 1129.5 1257.9C1123.5 1249.7 1112.9 1235.1 1106 1225.4C1099.1 1215.7 1090.8 1204.2 1087.5 1199.7C1078.8 1188.1 1066.1 1170.5 1055.2 1155C1050 1147.6 1043.9 1139.2 1041.6 1136.5C1039.3 1133.8 1036.2 1129.7 1034.7 1127.5C1033.3 1125.3 1030.2 1121 1028 1118C1025.8 1115 1022.4 1110.2 1020.5 1107.5C1018.6 1104.8 1015.3 1100 1013 1097C1010.8 1094 1008.2 1090.2 1007.3 1088.6C1006.3 1087 1004.1 1084.1 1002.5 1082.1C1000.8 1080.1 998.8 1077.5 998 1076.4C990.6 1065.7 985.4 1059.2 983 1057.7C981.4 1056.7 979.1 1053.8 977.9 1051.2C976.6 1048.6 974.4 1044.9 972.8 1043C968.4 1037.5 957.2 1022.1 952.7 1015.5C950.5 1012.2 946.4 1006.6 943.6 1003C940.8 999.4 937.2 994.5 935.5 992C933.9 989.5 931.6 986.4 930.4 985C929.1 983.6 926 979.3 923.3 975.3C920.7 971.4 912.3 959.7 904.8 949.3C888.8 927.5 866.6 896.6 861.8 889.7C860 887 853.5 878.2 847.5 869.9C841.5 861.7 830.9 847.1 824 837.4C817.1 827.7 808.8 816.2 805.5 811.7C796.8 800.1 784.1 782.5 773.2 767C768 759.6 761.9 751.2 759.6 748.5C757.3 745.8 754.2 741.7 752.7 739.5C751.3 737.3 748.2 733 746 730C743.8 727 740.4 722.2 738.5 719.5C736.6 716.8 733.3 712 731 709C728.8 706 726.2 702.2 725.3 700.6C724.3 699 721.9 695.8 720 693.4C708.2 678.7 703 670.5 703 666.5C703 662.2 706.1 653.8 709.9 647.9C711.4 645.4 717.1 639.8 722.3 635.3C739.7 620.9 767.6 609.1 807 599.6C817.2 597.1 828.6 594.6 832.5 594C836.4 593.3 844 592 849.5 590.9C855 589.9 863.8 588.6 869 588C874.2 587.4 883.2 586.3 889 585.5C915.7 581.8 978 580.1 1024.4 581.9C1041.4 582.6 1058.7 583.5 1062.9 584.1C1067.1 584.6 1079 585.9 1089.5 587C1100 588.2 1111.7 589.7 1115.5 590.5C1119.3 591.2 1124.5 592.1 1127 592.5C1138.8 594.1 1171.9 602.1 1187.4 607.1C1203.9 612.3 1225.3 621.7 1233.9 627.5C1237.8 630 1244.6 635.5 1249 639.6C1257.8 648 1261.7 654.5 1262.7 662.7C1263.2 667.2 1262.9 668.5 1260.5 672.7C1259 675.3 1256.9 678.5 1255.8 679.7C1253.8 681.9 1238.1 703.8 1224.4 723.5C1220.2 729.5 1212 741.2 1206.1 749.3C1200.3 757.4 1194.8 765.2 1194 766.5C1193.2 767.8 1188.2 774.8 1183 781.9C1177.8 789.1 1172.6 796.5 1171.6 798.3C1170.5 800 1167.6 804.2 1165 807.5C1162.5 810.8 1159.8 814.5 1159 815.7C1156.2 819.8 1140.7 841.5 1138 845C1135.5 848.3 1133 852 1127 861.1C1125.6 863.2 1119.8 871.3 1114.1 879.2C1108.3 887.1 1101.5 896.6 1098.8 900.5C1096.1 904.4 1091.6 910.7 1088.7 914.6C1079.2 927.6 1077.9 929.4 1071.9 938.5C1068.7 943.5 1062.6 952 1058.5 957.5C1054.4 963 1049.4 970 1047.3 973C1045.2 976 1038.4 985.6 1032.2 994.4C1026 1003.1 1021.2 1010.5 1021.5 1010.8C1021.7 1011.1 1026.1 1009.2 1031.2 1006.7C1048 998.4 1090 985.9 1114.5 982C1118.3 981.3 1126 980 1131.5 978.9C1137 977.9 1145.8 976.6 1151 976C1156.2 975.4 1165.2 974.3 1171 973.5C1197.7 969.8 1260 968.1 1306.4 969.9C1323.4 970.6 1340.7 971.5 1344.9 972.1C1349.1 972.6 1361 973.9 1371.5 975C1382 976.2 1393.7 977.7 1397.5 978.5C1401.3 979.2 1406.5 980.1 1409 980.5C1420.8 982.1 1453.9 990.1 1469.4 995.1C1485.9 1000.3 1507.3 1009.7 1515.9 1015.5C1519.8 1018 1526.6 1023.5 1531 1027.6C1539.8 1036 1543.7 1042.5 1544.7 1050.7C1545.2 1055.2 1544.9 1056.5 1542.5 1060.7C1541 1063.3 1538.9 1066.5 1537.8 1067.7C1535.8 1069.9 1520.1 1091.8 1506.4 1111.5C1502.2 1117.5 1494 1129.2 1488.1 1137.3C1482.3 1145.4 1476.8 1153.2 1476 1154.5C1475.2 1155.8 1470.2 1162.8 1465 1169.9C1459.8 1177.1 1454.6 1184.5 1453.6 1186.3C1452.5 1188 1449.6 1192.2 1447 1195.5C1444.5 1198.8 1441.8 1202.5 1441 1203.7C1438.2 1207.8 1422.7 1229.5 1420 1233C1417.5 1236.3 1415 1240 1409 1249.1C1407.6 1251.2 1401.8 1259.3 1396.1 1267.2C1390.3 1275.1 1383.5 1284.7 1380.8 1288.5C1378.1 1292.3 1373.6 1298.7 1370.7 1302.6C1361.2 1315.6 1359.9 1317.4 1353.9 1326.5C1350.7 1331.5 1344.6 1340 1340.5 1345.5C1336.4 1351 1331.4 1358 1329.3 1361C1327.2 1364 1320.5 1373.5 1314.4 1382.1C1304.1 1396.6 1301 1401.6 1302.8 1400.7C1318.9 1392.9 1325 1390.3 1337.5 1386.1C1352.6 1381 1383.6 1373.1 1396.5 1371C1400.3 1370.3 1408 1369 1413.5 1367.9C1419 1366.9 1427.8 1365.6 1433 1365C1438.2 1364.4 1447.2 1363.3 1453 1362.5C1479.7 1358.8 1542 1357.1 1588.4 1358.9C1605.4 1359.6 1622.7 1360.5 1626.9 1361.1C1631.1 1361.6 1643 1362.9 1653.5 1364C1664 1365.2 1675.7 1366.7 1679.5 1367.5C1683.3 1368.2 1688.5 1369.1 1691 1369.5C1702.8 1371.1 1735.9 1379.1 1751.4 1384.1C1767.9 1389.3 1789.3 1398.7 1797.9 1404.5C1801.8 1407 1808.6 1412.5 1813 1416.6C1821.8 1425 1825.7 1431.5 1826.7 1439.7C1827.2 1444.2 1826.9 1445.5 1824.5 1449.7C1823 1452.3 1820.9 1455.5 1819.8 1456.7C1817.8 1458.9 1802.1 1480.8 1788.4 1500.5C1784.2 1506.5 1776 1518.2 1770.1 1526.3C1764.3 1534.4 1758.8 1542.2 1758 1543.5C1757.2 1544.8 1752.2 1551.8 1747 1558.9C1741.8 1566.1 1736.6 1573.5 1735.6 1575.3C1734.5 1577 1731.6 1581.2 1729 1584.5C1726.5 1587.8 1723.8 1591.5 1723 1592.7C1720.2 1596.8 1704.7 1618.5 1702 1622C1699.5 1625.3 1697 1629 1691 1638.1C1689.6 1640.2 1683.8 1648.3 1678.1 1656.2C1672.3 1664.1 1665.5 1673.7 1662.8 1677.5C1660.1 1681.3 1655.6 1687.7 1652.7 1691.6C1643.2 1704.6 1641.9 1706.4 1635.9 1715.5C1632.7 1720.5 1626.6 1729 1622.5 1734.5C1618.4 1740 1612.7 1747.9 1609.9 1752C1607 1756.1 1600.4 1765.6 1595.1 1773C1589.8 1780.4 1585 1787.3 1584.5 1788.2C1584 1789.1 1579.5 1795.4 1574.5 1802.2C1563.9 1816.6 1559.7 1823.3 1558.1 1828.3C1556.8 1832.2 1552.8 1836 1550 1836C1547.5 1836 1543.1 1831.6 1541.4 1827.3C1540.5 1825.3 1538.5 1822.1 1536.9 1820.1C1532.7 1814.8 1521.4 1799.4 1516.7 1792.5C1514.5 1789.2 1510.4 1783.6 1507.6 1780C1504.8 1776.4 1501.2 1771.5 1499.5 1769C1497.9 1766.5 1495.6 1763.4 1494.4 1762C1493.1 1760.6 1490 1756.3 1487.3 1752.3C1484.7 1748.4 1476.3 1736.7 1468.8 1726.3C1452.8 1704.5 1430.6 1673.6 1425.8 1666.7C1424 1664 1417.5 1655.2 1411.5 1646.9C1405.5 1638.7 1394.9 1624.1 1388 1614.4C1381.1 1604.7 1372.8 1593.2 1369.5 1588.7C1360.8 1577.1 1348.1 1559.5 1337.2 1544C1332 1536.6 1325.9 1528.2 1323.6 1525.5C1321.3 1522.8 1318.2 1518.7 1316.7 1516.5C1315.3 1514.3 1312.2 1510 1310 1507C1307.8 1504 1304.4 1499.2 1302.5 1496.5C1300.6 1493.8 1297.3 1489 1295 1486C1292.8 1483 1290.2 1479.2 1289.3 1477.6C1288.3 1476 1285.9 1472.8 1284 1470.5C1280.8 1466.6 1271.2 1453.6 1268.9 1450C1268.1 1448.7 1267.9 1448.7 1267.1 1450C1266.6 1450.8 1265.1 1452.9 1263.8 1454.7C1262.5 1456.5 1257.7 1463.2 1253.1 1469.7C1248.5 1476.2 1242.4 1484.7 1239.5 1488.5C1236.7 1492.3 1231.7 1499.3 1228.5 1504C1225.3 1508.7 1217.9 1519.2 1212.1 1527.3C1206.3 1535.4 1200.8 1543.2 1200 1544.5C1199.2 1545.8 1194.2 1552.8 1189 1559.9C1183.8 1567.1 1178.6 1574.5 1177.6 1576.3C1176.5 1578 1173.6 1582.2 1171 1585.5C1168.5 1588.8 1165.8 1592.5 1165 1593.7C1162.2 1597.8 1146.7 1619.5 1144 1623C1141.5 1626.3 1139 1630 1133 1639.1C1131.6 1641.2 1125.8 1649.3 1120.1 1657.2C1114.3 1665.1 1107.5 1674.7 1104.8 1678.5C1102.1 1682.3 1097.6 1688.7 1094.7 1692.6C1085.2 1705.6 1083.9 1707.4 1077.9 1716.5C1074.7 1721.5 1068.6 1730 1064.5 1735.5C1060.4 1741 1054.7 1748.9 1051.9 1753C1049 1757.1 1042.4 1766.6 1037.1 1774C1031.8 1781.4 1027 1788.3 1026.5 1789.2C1026 1790.1 1021.5 1796.4 1016.5 1803.2C1005.9 1817.6 1001.7 1824.3 1000.1 1829.3C998.8 1833.2 994.8 1837 992 1837C991.1 1837 989.1 1835.9 987.6 1834.5ZM992.4 1817.4C993.3 1817.1 994 1816.4 994 1815.9C994 1815.4 997.3 1810.6 1001.2 1805.2C1015.5 1785.8 1020.7 1778.5 1022 1776.1C1022.7 1774.7 1029 1765.9 1036.1 1756.4C1043.2 1746.9 1049 1738.8 1049 1738.4C1049 1737.6 1062 1719.2 1067 1713C1069 1710.5 1073.5 1704.2 1077 1699C1080.5 1693.8 1089.9 1680.3 1097.9 1669.2C1105.9 1658 1113.8 1646.9 1115.5 1644.5C1117.2 1642.2 1120.4 1637.6 1122.8 1634.4C1125.1 1631.1 1130 1624.2 1133.5 1619C1137.1 1613.8 1142.8 1605.6 1146.3 1600.8C1162.1 1578.6 1168.3 1569.8 1178.7 1554.7C1188.5 1540.5 1195.2 1531.2 1207.6 1514.5C1209.4 1512.2 1211.3 1509.2 1212 1507.9C1212.7 1506.6 1214.3 1504.4 1215.5 1503C1216.8 1501.6 1219.9 1497.3 1222.6 1493.5C1233.2 1478 1237.3 1472.2 1241.5 1466.5C1244 1463.2 1247.2 1458.5 1248.7 1456.1C1253.2 1448.7 1256.1 1449 1186.4 1449L1125.1 1449L1123.3 1446.4C1114.6 1434 1109.5 1430 1095.4 1424.6C1082.8 1419.8 1060.6 1414.6 1041.5 1412.1C1027.8 1410.3 1020.4 1410 990.5 1410C971.2 1410 951.9 1410.4 947.5 1411C926.6 1413.5 915.1 1415.2 911 1416.5C908.5 1417.3 903.8 1418.4 900.6 1419C894.6 1420 881.9 1424.5 874.5 1428.2C866.4 1432.3 860.3 1437.7 858.5 1442.4C857.5 1444.9 856 1447.2 855.1 1447.7C854.2 1448.1 825.3 1448.6 790.8 1448.8C736.6 1449.1 728 1449.3 726.9 1450.6C725.9 1451.8 726.4 1453.2 730 1458.3C737.4 1468.8 752.1 1489.1 757.9 1496.8C761 1500.9 763.9 1504.9 764.5 1505.8C765.7 1507.8 768 1511.1 785.9 1535.5C793.1 1545.4 801.2 1556.5 803.8 1560.2C806.4 1563.9 811 1570.3 814 1574.5C817 1578.6 821.1 1584.3 823 1587.1C824.9 1589.8 828.3 1594.5 830.5 1597.5C832.7 1600.5 837 1606.4 840 1610.6C843 1614.9 849.4 1623.6 854.1 1630C858.8 1636.4 866.9 1647.4 871.9 1654.6C877 1661.7 883.8 1671.1 887.1 1675.5C894 1684.6 899.2 1692 903.5 1698.9C905.2 1701.5 908.8 1706.5 911.6 1710.1C917.7 1717.9 928.6 1732.7 932 1738C933.4 1740.1 939.9 1749.2 946.5 1758.1C953.1 1767 959.2 1775.5 960 1776.9C961.6 1779.7 990.1 1818 990.6 1818C990.7 1818 991.5 1817.7 992.4 1817.4ZM1550.4 1816.4C1551.3 1816.1 1552 1815.4 1552 1814.9C1552 1814.4 1555.3 1809.6 1559.2 1804.2C1573.5 1784.8 1578.7 1777.5 1580 1775.1C1580.7 1773.7 1587 1764.9 1594.1 1755.4C1601.2 1745.9 1607 1737.8 1607 1737.4C1607 1736.6 1620 1718.2 1625 1712C1627 1709.5 1631.5 1703.2 1635 1698C1638.5 1692.8 1647.9 1679.3 1655.9 1668.2C1663.9 1657 1671.8 1645.9 1673.5 1643.5C1675.2 1641.2 1678.4 1636.6 1680.8 1633.4C1683.1 1630.1 1688 1623.2 1691.5 1618C1695.1 1612.8 1700.8 1604.6 1704.3 1599.8C1720.1 1577.6 1726.3 1568.8 1736.7 1553.7C1746.5 1539.5 1753.2 1530.2 1765.6 1513.5C1767.4 1511.2 1769.3 1508.2 1770 1506.9C1770.7 1505.6 1772.3 1503.4 1773.5 1502C1774.8 1500.6 1777.9 1496.3 1780.6 1492.5C1791.2 1477 1795.3 1471.2 1799.5 1465.5C1802 1462.2 1805.2 1457.5 1806.7 1455.1C1811.2 1447.7 1814.1 1448 1744.4 1448L1683.1 1448L1681.3 1445.4C1672.6 1433 1667.5 1429 1653.4 1423.6C1640.8 1418.8 1618.6 1413.6 1599.5 1411.1C1585.8 1409.3 1578.4 1409 1548.5 1409C1529.2 1409 1509.9 1409.4 1505.5 1410C1484.6 1412.5 1473.1 1414.2 1469 1415.5C1466.5 1416.3 1461.8 1417.4 1458.6 1418C1452.6 1419 1439.9 1423.5 1432.5 1427.2C1424.4 1431.3 1418.3 1436.7 1416.5 1441.4C1415.5 1443.9 1414 1446.2 1413.1 1446.7C1412.2 1447.1 1383.3 1447.6 1348.8 1447.8C1294.6 1448.1 1286 1448.3 1284.9 1449.6C1283.9 1450.8 1284.4 1452.2 1288 1457.3C1295.4 1467.8 1310.1 1488.1 1315.9 1495.8C1319 1499.9 1321.9 1503.9 1322.5 1504.8C1323.7 1506.8 1326 1510.1 1343.9 1534.5C1351.1 1544.4 1359.2 1555.5 1361.8 1559.2C1364.4 1562.9 1369 1569.3 1372 1573.5C1375 1577.6 1379.1 1583.3 1381 1586.1C1382.9 1588.8 1386.3 1593.5 1388.5 1596.5C1390.7 1599.5 1395 1605.4 1398 1609.6C1401 1613.9 1407.4 1622.6 1412.1 1629C1416.8 1635.4 1424.9 1646.4 1429.9 1653.6C1435 1660.7 1441.8 1670.1 1445.1 1674.5C1452 1683.6 1457.2 1691 1461.5 1697.9C1463.2 1700.5 1466.8 1705.5 1469.6 1709.1C1475.7 1716.9 1486.6 1731.7 1490 1737C1491.4 1739.1 1497.9 1748.2 1504.5 1757.1C1511.1 1766 1517.2 1774.5 1518 1775.9C1519.6 1778.7 1548.1 1817 1548.6 1817C1548.7 1817 1549.5 1816.7 1550.4 1816.4ZM1255.4 1437.8C1257.2 1434.9 1253.6 1429.9 1244.1 1421.6C1218.7 1399.3 1157.4 1381.4 1076.5 1372.5C1055.8 1370.3 1022.8 1369 985 1369C947.1 1369 924.3 1370.1 900.1 1372.9C891 1374 880.6 1375.1 877 1375.5C853.8 1377.7 794.5 1391.1 781.5 1397.1C779.3 1398.1 775.7 1399.4 773.5 1400.1C767.8 1401.8 754.6 1408 746.1 1413C737.8 1417.8 722 1432.8 722 1435.8C722 1437.2 722.9 1437.9 725.1 1438.4C726.8 1438.7 754.9 1439 787.5 1439L846.8 1439L850.3 1434.2C856 1426.5 863.9 1421.5 881.3 1414.6C887.7 1412.1 894.9 1409.8 897.2 1409.4C899.6 1409.1 903.8 1408.2 906.5 1407.4C909.2 1406.6 919.4 1404.7 929 1403.2C945.9 1400.6 948 1400.5 987.5 1400.5C1015.9 1400.5 1030.7 1400.9 1035.7 1401.8C1039.7 1402.4 1047.1 1403.4 1052.2 1404C1061.9 1405 1082.9 1409.6 1094 1413.2C1106.6 1417.2 1117.9 1423.8 1125.4 1431.4L1132.3 1438.5L1180.9 1439.1C1251.9 1439.9 1254.1 1439.8 1255.4 1437.8ZM1813.4 1436.8C1815.2 1433.9 1811.6 1428.9 1802.1 1420.6C1776.7 1398.3 1715.4 1380.4 1634.5 1371.5C1613.8 1369.3 1580.8 1368 1543 1368C1505.1 1368 1482.3 1369.1 1458.1 1371.9C1449 1373 1438.6 1374.1 1435 1374.5C1411.8 1376.7 1352.5 1390.1 1339.5 1396.1C1337.3 1397.1 1333.7 1398.4 1331.5 1399.1C1325.8 1400.8 1312.6 1407 1304.1 1412C1295.8 1416.8 1280 1431.8 1280 1434.8C1280 1436.2 1280.9 1436.9 1283.1 1437.4C1284.8 1437.7 1312.9 1438 1345.5 1438L1404.8 1438L1408.3 1433.2C1414 1425.5 1421.9 1420.5 1439.3 1413.6C1445.7 1411.1 1452.9 1408.8 1455.2 1408.4C1457.6 1408.1 1461.8 1407.2 1464.5 1406.4C1467.2 1405.6 1477.4 1403.7 1487 1402.2C1503.9 1399.6 1506 1399.5 1545.5 1399.5C1573.9 1399.5 1588.7 1399.9 1593.7 1400.8C1597.7 1401.4 1605.1 1402.4 1610.2 1403C1619.9 1404 1640.9 1408.6 1652 1412.2C1664.6 1416.2 1675.9 1422.8 1683.4 1430.4L1690.3 1437.5L1738.9 1438.1C1809.9 1438.9 1812.1 1438.8 1813.4 1436.8ZM1268.4 1427.4C1269.3 1427.1 1270 1426.4 1270 1425.9C1270 1425.4 1273.3 1420.6 1277.2 1415.2C1291.5 1395.8 1296.7 1388.5 1298 1386.1C1298.7 1384.7 1305 1375.9 1312.1 1366.4C1319.2 1356.9 1325 1348.8 1325 1348.4C1325 1347.6 1338 1329.2 1343 1323C1345 1320.5 1349.5 1314.2 1353 1309C1356.5 1303.8 1365.9 1290.3 1373.9 1279.2C1381.9 1268 1389.8 1256.9 1391.5 1254.5C1393.2 1252.2 1396.4 1247.6 1398.8 1244.4C1401.1 1241.1 1406 1234.2 1409.5 1229C1413.1 1223.8 1418.8 1215.6 1422.3 1210.8C1438.1 1188.6 1444.3 1179.8 1454.7 1164.7C1464.5 1150.5 1471.2 1141.2 1483.6 1124.5C1485.4 1122.2 1487.3 1119.2 1488 1117.9C1488.7 1116.6 1490.3 1114.4 1491.5 1113C1492.8 1111.6 1495.9 1107.3 1498.6 1103.5C1509.2 1088 1513.3 1082.2 1517.5 1076.5C1520 1073.2 1523.2 1068.5 1524.7 1066.1C1529.2 1058.7 1532.1 1059 1462.4 1059L1401.1 1059L1399.3 1056.4C1390.6 1044 1385.5 1040 1371.4 1034.6C1358.8 1029.8 1336.6 1024.6 1317.5 1022.1C1303.8 1020.3 1296.4 1020 1266.5 1020C1247.2 1020 1227.9 1020.4 1223.5 1021C1202.6 1023.5 1191.1 1025.2 1187 1026.5C1184.5 1027.3 1179.8 1028.4 1176.6 1029C1170.6 1030 1157.9 1034.5 1150.5 1038.2C1142.4 1042.3 1136.3 1047.7 1134.5 1052.4C1133.5 1054.9 1132 1057.2 1131.1 1057.7C1130.2 1058.1 1101.3 1058.6 1066.8 1058.8C1012.6 1059.1 1004 1059.3 1002.9 1060.6C1001.9 1061.8 1002.4 1063.2 1006 1068.3C1013.4 1078.8 1028.1 1099.1 1033.9 1106.8C1037 1110.9 1039.9 1114.9 1040.5 1115.8C1041.7 1117.8 1044 1121.1 1061.9 1145.5C1069.1 1155.4 1077.2 1166.5 1079.8 1170.2C1082.4 1173.9 1087 1180.3 1090 1184.5C1093 1188.6 1097.1 1194.3 1099 1197.1C1100.9 1199.8 1104.3 1204.5 1106.5 1207.5C1108.7 1210.5 1113 1216.4 1116 1220.6C1119 1224.9 1125.4 1233.6 1130.1 1240C1134.8 1246.4 1142.9 1257.4 1147.9 1264.6C1153 1271.7 1159.8 1281.1 1163.1 1285.5C1170 1294.6 1175.2 1302 1179.5 1308.9C1181.2 1311.5 1184.8 1316.5 1187.6 1320.1C1193.7 1327.9 1204.6 1342.7 1208 1348C1209.4 1350.1 1215.9 1359.2 1222.5 1368.1C1229.1 1377 1235.2 1385.5 1236 1386.9C1237.6 1389.7 1266.1 1428 1266.6 1428C1266.7 1428 1267.5 1427.7 1268.4 1427.4ZM1531.4 1047.8C1533.2 1044.9 1529.6 1039.9 1520.1 1031.6C1494.7 1009.3 1433.4 991.4 1352.5 982.5C1331.8 980.3 1298.8 979 1261 979C1223.1 979 1200.3 980.1 1176.1 982.9C1167 984 1156.6 985.1 1153 985.5C1129.8 987.7 1070.5 1001.1 1057.5 1007.1C1055.3 1008.1 1051.7 1009.4 1049.5 1010.1C1043.8 1011.8 1030.6 1018 1022.1 1023C1013.8 1027.8 998 1042.8 998 1045.8C998 1047.2 998.9 1047.9 1001.1 1048.4C1002.8 1048.7 1030.9 1049 1063.5 1049L1122.8 1049L1126.3 1044.2C1132 1036.5 1139.9 1031.5 1157.3 1024.6C1163.7 1022.1 1170.9 1019.8 1173.2 1019.4C1175.6 1019.1 1179.8 1018.2 1182.5 1017.4C1185.2 1016.6 1195.4 1014.7 1205 1013.2C1221.9 1010.6 1224 1010.5 1263.5 1010.5C1291.9 1010.5 1306.7 1010.9 1311.7 1011.8C1315.7 1012.4 1323.1 1013.4 1328.2 1014C1337.9 1015 1358.9 1019.6 1370 1023.2C1382.6 1027.2 1393.9 1033.8 1401.4 1041.4L1408.3 1048.5L1456.9 1049.1C1527.9 1049.9 1530.1 1049.8 1531.4 1047.8ZM986.4 1039.4C987.3 1039.1 988 1038.4 988 1037.9C988 1037.4 991.3 1032.6 995.2 1027.2C1009.5 1007.8 1014.7 1000.5 1016 998.1C1016.7 996.7 1023 987.9 1030.1 978.4C1037.2 968.9 1043 960.8 1043 960.4C1043 959.6 1056 941.2 1061 935C1063 932.5 1067.5 926.2 1071 921C1074.5 915.8 1083.9 902.3 1091.9 891.2C1099.9 880 1107.8 868.9 1109.5 866.5C1111.2 864.2 1114.4 859.6 1116.8 856.4C1119.1 853.1 1124 846.2 1127.5 841C1131.1 835.8 1136.8 827.6 1140.3 822.8C1156.1 800.6 1162.3 791.8 1172.7 776.7C1182.5 762.5 1189.2 753.2 1201.6 736.5C1203.4 734.2 1205.3 731.2 1206 729.9C1206.7 728.6 1208.3 726.4 1209.5 725C1210.8 723.6 1213.9 719.4 1216.6 715.5C1227.2 700 1231.3 694.2 1235.5 688.5C1238 685.2 1241.2 680.5 1242.7 678.1C1247.2 670.7 1250.2 671 1180 671L1118.3 671L1113.9 664.3C1108.5 656.1 1102.1 651.5 1089.5 646.6C1077 641.9 1055.8 636.7 1043.5 635.4C1040.2 635.1 1035.7 634.4 1033.5 633.8C1027.9 632.3 953.8 631.6 942.5 632.9C922 635.2 909.2 637.2 905 638.5C902.5 639.3 897.8 640.4 894.6 640.9C884.1 642.8 868.2 649.5 859.8 655.7C855 659.3 853.9 660.7 852.9 664.4C852.3 666.9 851.1 669.2 850.1 669.6C849.2 670.1 820.1 670.7 785.3 671C736.9 671.4 721.8 671.8 720.9 672.7C719.9 673.7 720.7 675.6 725 681.7C727.9 686 731.7 691.3 733.5 693.5C735.2 695.7 739.3 701.3 742.5 706C745.7 710.7 750.7 717.5 753.7 721.2C756.6 724.9 759 728.2 759 728.6C759 729 760.7 731.6 762.9 734.4C768 741.2 791.8 773.7 797.8 782.2C800.4 785.9 805 792.3 808 796.5C811 800.6 815.1 806.3 817 809.1C818.9 811.8 822.3 816.5 824.5 819.5C826.7 822.5 831 828.4 834 832.6C837 836.9 843.4 845.6 848.1 852C852.8 858.4 860.9 869.4 865.9 876.6C871 883.7 877.8 893.1 881.1 897.5C888 906.6 893.2 914 897.5 920.9C899.2 923.5 902.8 928.5 905.6 932.1C911.7 939.9 922.6 954.7 926 960C927.4 962.1 933.9 971.2 940.5 980.1C947.1 989 953.2 997.5 954 998.9C955.6 1001.7 984.1 1040 984.6 1040C984.7 1040 985.5 1039.7 986.4 1039.4Z"/></svg>