<svg xmlns="http://www.w3.org/2000/svg" width="1100" height="1108" viewBox="0 0 2367 2385"><path fill="#000" fill-rule="evenodd" d="M684 2264.9C672.3 2263.8 661 2261.6 656.7 2259.4C651.8 2256.9 641 2249.1 635.7 2244.1C632.4 2241 629.4 2236.7 626 2229.7C623.2 2224.3 621 2218.9 621 2217.8C621 2216.7 623 2213.8 625.4 2211.4C632.2 2204.6 635.3 2205.5 641.4 2216.3C645.3 2223 655 2233.1 660.7 2236.2C669.5 2241 679 2243 693.4 2243L706.2 2243L714.1 2239.1C718.4 2236.9 723.6 2233.9 725.5 2232.4C732.3 2227.3 736.1 2217.6 734.6 2209.5C732.8 2200 712.7 2189.5 685.5 2184C665.3 2179.9 655.4 2176.9 644.3 2171.5C635.2 2167.1 632.5 2165.3 630.5 2162.2C627.3 2157.3 621.4 2143 619.9 2136.3C618.8 2131.4 618.9 2130.5 621.4 2124.3C627.7 2108.3 632.2 2103.6 649.5 2095.1C661.3 2089.3 665.9 2088.5 686 2088.5C705.7 2088.6 709.9 2089.4 725.3 2096C736.3 2100.7 743.8 2107.5 748.1 2116.4C754.4 2129.7 752.4 2140 743.4 2140C740.6 2140 739.3 2139 734.8 2133.8C717.6 2113.5 709.6 2109.8 683.5 2109.6L669.5 2109.5L659.6 2114.3C642.2 2122.6 639.2 2126 641.4 2135.1C643.2 2142.9 645.5 2146.7 649.8 2148.9C654.1 2151 668 2155.6 673 2156.5C676.6 2157.1 684.8 2159.5 702.6 2164.9C708.2 2166.7 716 2168.7 719.8 2169.4C725.8 2170.5 727.9 2171.5 733.4 2175.9C736.9 2178.7 741.2 2182.6 742.9 2184.5C749 2191.5 755 2206.1 755 2213.9C755 2219.2 750.5 2232.7 746.6 2239.5C741.8 2247.7 727 2257.4 710.2 2263.4C702.4 2266.2 700 2266.3 684 2264.9ZM1388.3 2264.5C1381.5 2263 1365.4 2256.5 1357.4 2251.9C1350.8 2248.2 1339.4 2238.1 1335.3 2232.3C1325.7 2218.8 1318 2195.9 1318 2181.1C1318 2170.9 1320.5 2154 1323.1 2146C1330.8 2122.7 1344.6 2106 1364 2096.3C1378 2089.3 1383.5 2088 1399.5 2088C1415.2 2088 1420.1 2089.1 1436 2096.3C1446.5 2101 1448.3 2102.2 1456 2110C1464.9 2118.9 1468.3 2124.3 1475.4 2140.9C1480.9 2153.6 1482.4 2162.9 1481.7 2179.5C1480.9 2195.9 1479.1 2205.2 1475.1 2213.5C1473.4 2216.8 1471 2222 1469.7 2225C1467.2 2230.4 1458.5 2241.3 1452.5 2246.3C1448.5 2249.6 1430.9 2259.2 1424 2261.7C1413 2265.8 1399.3 2266.9 1388.3 2264.5ZM936.7 2263.5C934.5 2262.8 931.7 2261.1 930.4 2259.9L927.9 2257.6L928.2 2177C928.4 2117.6 928.8 2095.8 929.7 2093.8C932 2088.7 933.9 2088.5 990.8 2088.5L1043.2 2088.5L1045.6 2091.3C1048.2 2094.3 1048.8 2099.6 1046.9 2103.2C1046.3 2104.3 1043.7 2106.1 1041.2 2107.3C1037 2109.1 1034.4 2109.4 1016 2109.5C1004.7 2109.6 993.5 2109.3 991.1 2108.8C988.3 2108.2 984.8 2108.3 981.8 2109C978.3 2109.7 974.8 2109.7 969.9 2108.9C960.6 2107.5 956.6 2109.3 953 2116.5C950.9 2120.7 950.5 2123.3 950.2 2132C949.8 2145.9 950.7 2149.9 954.8 2152.3C957.8 2154 961.4 2154.3 996.9 2155C1031.5 2155.7 1036.2 2156 1038.8 2157.6C1043.8 2160.5 1045.1 2165 1042.5 2169.9C1039.4 2176 1037.4 2176.3 995.5 2176.9C954.6 2177.6 954.6 2177.6 951.8 2182.9C950.9 2184.7 950.4 2191.9 950.2 2206.5C949.7 2235.1 950.8 2239.4 959.1 2242.2C961.3 2243 977.6 2243.5 1006.8 2243.9L1051.2 2244.5L1053.6 2247.3C1055.6 2249.6 1056 2251.2 1056 2256.1C1056 2265.4 1059 2265 994.8 2265C951.4 2264.9 939.7 2264.6 936.7 2263.5ZM1091.9 2263.1C1090 2261.6 1089.5 2259.9 1088.9 2253.9C1087.8 2243 1087.9 2112 1089 2101.6C1090.5 2087.3 1086.2 2088.5 1136.8 2088.5C1184.1 2088.5 1186.3 2088.7 1196.2 2094.7C1208.9 2102.3 1217.9 2112.9 1222.1 2125.1C1223.9 2130.5 1224.1 2132.8 1223.6 2140.2C1223.2 2144.9 1222.3 2151 1221.5 2153.7C1219.8 2159.1 1208.9 2175.3 1204.9 2178.3C1203.4 2179.3 1195.8 2182.2 1187.9 2184.7L1173.5 2189.2L1146.5 2190.5C1117.7 2191.8 1113.4 2192.6 1110.8 2197.2C1109.9 2198.9 1109.4 2207 1109 2227.5C1108.3 2259.4 1108.1 2260.6 1101 2263.4C1095.8 2265.4 1094.7 2265.4 1091.9 2263.1ZM1660 2263.7C1654.8 2261.1 1655 2263.4 1655.2 2176.5C1655.5 2102.3 1655.6 2095.2 1657.2 2092.8C1658.1 2091.4 1660.1 2089.9 1661.7 2089.5C1663.2 2089.2 1686 2088.6 1712.3 2088.3L1760 2087.8L1764 2091.8C1768.2 2095.9 1768.8 2098.2 1766.8 2102.4C1764.1 2108.4 1764 2108.4 1722.4 2109.1C1695.9 2109.6 1683.6 2110.1 1682 2111C1678.2 2113 1675.8 2120.4 1674.6 2133.3C1673.4 2146.9 1674 2148.9 1680 2152.4C1683.3 2154.4 1685.3 2154.5 1713.5 2154.7C1730 2154.8 1744.3 2154.9 1745.4 2155C1748 2155 1755 2162.3 1755 2164.9C1755 2171.2 1747.9 2177.3 1740.7 2177.3C1738.4 2177.3 1725.5 2177.1 1712 2177C1684.1 2176.7 1680.9 2177.2 1677.5 2183.1C1675.6 2186.3 1675.5 2188.8 1675 2220.5C1674.4 2258.5 1674.1 2260.3 1667.5 2263.4C1663.5 2265.3 1663.2 2265.3 1660 2263.7ZM1512.7 2261.4C1511.2 2260 1509.8 2257.4 1509.5 2255.6C1509.2 2253.9 1509 2217.4 1509.2 2174.5C1509.5 2086.7 1509.1 2091.2 1516.8 2089.1C1521.3 2087.8 1606.4 2087.7 1613 2088.9C1621.8 2090.6 1624.8 2098.8 1619.1 2105.2L1616.2 2108.5L1579.3 2109C1535.2 2109.6 1536.4 2109.3 1531.6 2120.3C1528.9 2126.3 1528.7 2127.5 1529.6 2131.8C1530.1 2134.4 1530.2 2138.3 1529.8 2140.5C1528.8 2146.1 1529.7 2149.6 1532.8 2151.6C1536 2153.7 1552 2154.9 1578 2155C1597.3 2155 1601.5 2155.7 1605.4 2159.7C1610.4 2164.6 1609.8 2169.8 1603.8 2174.3C1601.4 2176.1 1598.9 2176.3 1570.3 2176.9C1535 2177.7 1534.4 2177.9 1531.5 2185.3C1530.1 2189.1 1529.8 2194.5 1529.7 2222.1C1529.5 2250.8 1529.3 2254.9 1527.8 2257.7C1524.1 2264.4 1517.3 2266.1 1512.7 2261.4ZM834 2262.3C833.2 2262 831.3 2260.9 829.8 2259.8L827.1 2257.9L826.8 2189.2C826.5 2122.2 826.5 2120.4 824.5 2117C820.6 2110.5 817.6 2109.5 799 2109.2C789.9 2109.1 781.5 2108.7 780.3 2108.5C775.8 2107.5 769.4 2097.7 770.4 2093.5C771.6 2088.8 774.2 2088.6 836.5 2088.5C890.5 2088.5 894.7 2088.6 897.8 2090.3C903.7 2093.5 904.1 2099.5 898.8 2104.9C894.8 2109 890 2110.2 882.4 2109C878.5 2108.4 875.2 2108.4 873 2109C871.1 2109.6 866.8 2110 863.5 2110C856.4 2110 852 2112.2 849.3 2117.2C847.6 2120.3 847.5 2125.5 847 2188.5C846.5 2259.9 846.5 2259.6 842 2262C840 2263.1 836.5 2263.2 834 2262.3ZM1409.5 2246.5C1420.6 2244.4 1430 2238.9 1439.2 2229.1C1453.2 2214.3 1457 2202.9 1457 2175.8C1457 2161 1456.7 2158.2 1454.6 2151.3C1453.3 2147 1452 2142.4 1451.6 2141C1449.9 2133 1435.7 2118.1 1423.9 2111.7C1416.6 2107.7 1414.2 2106.9 1406.4 2106C1397.6 2105 1389.5 2105.7 1384 2107.8C1382.6 2108.4 1377.5 2111.1 1372.7 2113.9C1359.2 2121.9 1350.7 2133.9 1345.8 2151.7C1344 2158.2 1343.7 2162.2 1343.7 2176.5C1343.7 2191.7 1344 2194.5 1346.4 2203.3C1349.7 2215.7 1350.6 2217.3 1358.6 2226.5C1367.9 2237.1 1379.7 2244.8 1388.7 2246.1C1392.4 2246.6 1395.6 2247.3 1395.9 2247.5C1396.7 2248.4 1401.7 2248 1409.5 2246.5ZM1179.9 2165.6C1183.7 2163.7 1188.2 2160.6 1190 2158.8C1194.2 2154.7 1197.9 2146.6 1198.7 2140.2C1199.2 2135.9 1198.8 2134.1 1196.1 2128.3C1192.2 2120.2 1190.2 2117.9 1183 2113.5L1177.5 2110.2L1153.5 2109.4C1125.7 2108.4 1123 2108.5 1117.2 2111C1113.9 2112.5 1112.5 2113.9 1111 2117.2C1109.3 2121 1109 2123.8 1109 2141.2C1109 2161.2 1109.6 2165.2 1112.9 2166.6C1116.6 2168.1 1126.8 2168.7 1149.3 2168.9L1173 2169L1179.9 2165.6ZM1190.6 1885.9C1189.1 1884.7 1186.8 1881.7 1185.4 1879.2C1184.1 1876.6 1179.6 1870 1175.5 1864.5C1171.3 1859 1165.6 1851.1 1162.8 1847C1160 1842.9 1156 1837.5 1154 1835C1152 1832.5 1148.7 1827.9 1146.7 1824.8C1144.6 1821.7 1142.5 1818.8 1141.9 1818.4C1141.3 1818.1 1139.2 1815.2 1137.2 1812.1C1135.1 1809 1127.7 1798.5 1120.5 1788.6C1103.7 1765.6 1082.6 1736.3 1080 1732.5C1078.9 1730.8 1073.1 1722.9 1067.2 1714.8C1061.3 1706.8 1051.8 1693.5 1046 1685.4C1040.2 1677.3 1032.3 1666.3 1028.4 1661C1021.7 1652 1009.2 1634.8 992.9 1612.2C988.8 1606.5 983.6 1599.3 981.2 1596.2C978.9 1593.1 975.4 1588.2 973.4 1585.5C971.5 1582.8 967 1576.5 963.4 1571.5C959.8 1566.5 956.1 1561.2 955.2 1559.6C954.3 1558 951.9 1554.8 950 1552.4C944.2 1545.4 937.3 1535.7 935.6 1532.2C933.4 1527.9 934.2 1523.5 938.8 1514.7C946.6 1499.6 967.8 1485.8 999.6 1475.1C1044.8 1459.9 1111 1450.1 1168.3 1450L1184 1450L1182 1446.2C1180.9 1444.2 1176.6 1438 1172.5 1432.5C1168.3 1427 1162.6 1419.1 1159.8 1415C1157 1410.9 1153 1405.5 1151 1403C1149 1400.5 1145.7 1395.9 1143.7 1392.8C1141.6 1389.7 1139.5 1386.8 1138.9 1386.4C1138.3 1386.1 1136.2 1383.2 1134.2 1380.1C1132.1 1377 1124.7 1366.5 1117.5 1356.6C1100.7 1333.6 1079.6 1304.3 1077 1300.5C1075.9 1298.8 1070.1 1290.9 1064.2 1282.8C1058.3 1274.8 1048.8 1261.5 1043 1253.4C1037.2 1245.3 1029.3 1234.3 1025.4 1229C1018.7 1220 1006.2 1202.8 989.9 1180.2C985.8 1174.5 980.6 1167.3 978.2 1164.2C975.9 1161.1 972.4 1156.2 970.4 1153.5C968.5 1150.8 964 1144.5 960.4 1139.5C956.8 1134.5 953.1 1129.2 952.2 1127.6C951.3 1126 948.9 1122.8 947 1120.4C941.2 1113.4 934.3 1103.7 932.6 1100.2C930.4 1095.9 931.2 1091.5 935.8 1082.7C943.6 1067.6 964.8 1053.8 996.6 1043.1C1041.8 1027.9 1108 1018.1 1165.2 1018C1173.9 1018 1181 1017.8 1181 1017.5C1181 1016 1176.2 1008.5 1169.5 999.5C1165.3 994 1159.6 986.1 1156.8 982C1154 977.9 1150 972.5 1148 970C1146 967.5 1142.7 962.9 1140.7 959.8C1138.6 956.7 1136.5 953.8 1135.9 953.4C1135.3 953.1 1133.2 950.2 1131.2 947.1C1129.1 944 1121.7 933.5 1114.5 923.6C1097.7 900.6 1076.6 871.3 1074 867.5C1072.9 865.9 1067.1 857.9 1061.2 849.8C1055.3 841.8 1045.8 828.5 1040 820.4C1034.2 812.3 1026.3 801.3 1022.4 796C1015.7 787 1003.2 769.8 986.9 747.2C982.8 741.5 977.6 734.3 975.2 731.2C972.9 728.1 969.4 723.2 967.4 720.5C965.5 717.8 961 711.5 957.4 706.5C953.8 701.5 950.1 696.2 949.2 694.6C948.3 693 945.9 689.8 944 687.5C942.1 685.1 938.1 679.9 935.2 675.9C929.2 667.4 929.4 667.7 925.7 664.9C924.2 663.7 921.8 660.7 920.4 658.2C919.1 655.6 914.6 649 910.5 643.5C906.3 638 900.6 630.1 897.8 626C895 621.9 891 616.5 889 614C887 611.5 883.7 606.9 881.7 603.8C879.6 600.7 877.5 597.8 876.9 597.4C876.3 597.1 874.2 594.2 872.2 591.1C870.1 588 862.6 577.5 855.5 567.6C838.7 544.6 817.6 515.3 815 511.5C813.9 509.9 808.1 501.9 802.2 493.8C796.3 485.8 786.8 472.5 781 464.4C775.2 456.3 767.3 445.3 763.4 440C756.7 431 744.2 413.8 727.9 391.2C723.8 385.5 718.6 378.3 716.2 375.2C713.9 372.1 710.4 367.2 708.4 364.5C706.5 361.8 702 355.4 698.4 350.5C694.8 345.6 691.1 340.2 690.2 338.6C689.3 337 686.9 333.8 685 331.4C679.2 324.4 672.3 314.7 670.6 311.2C668.4 306.9 669.2 302.5 673.8 293.7C681.6 278.6 702.8 264.8 734.6 254.1C770.6 242 823.1 232.7 870.5 230C906.2 228 985.6 229.1 1005.5 232C1009.4 232.5 1018.9 233.7 1026.8 234.5C1045.8 236.4 1059.9 239 1089.5 245.7C1114.1 251.3 1144.6 263.1 1157.9 272.3C1164.8 277 1177 289 1179.1 293.2C1180.1 295.2 1181.5 299.2 1182.1 301.9C1183 306.3 1182.9 307.3 1180.9 311.2C1179.7 313.5 1177.2 317.3 1175.5 319.5C1173.7 321.7 1168.9 328.3 1164.9 334.1C1154.5 348.9 1141 368 1130.7 382.3C1125.9 389 1119.6 397.9 1116.8 402C1114 406.1 1108.6 413.8 1104.9 419C1101.2 424.2 1096 431.6 1093.3 435.3C1090.7 439 1087.2 443.8 1085.5 445.9C1082.7 449.6 1065.7 473.4 1063.5 476.7C1059.6 482.9 1053.8 491.1 1043.1 506.1C1036.2 515.7 1028.8 526.1 1026.6 529.3C1024.3 532.5 1020.4 537.8 1017.7 541.1C1015.1 544.5 1012.3 548.4 1011.5 550C1009.8 553.4 1003.5 562.4 997 571C994.3 574.6 988.8 582.2 984.7 588C980.7 593.8 974.2 602.9 970.4 608.3C966.6 613.7 962.5 619.7 961.2 621.6L959 625L968.7 620.1C1001.1 603.7 1068.4 589.5 1129.5 586C1165.2 584 1244.6 585.1 1264.5 588C1268.3 588.5 1277.9 589.7 1285.8 590.5C1304.8 592.4 1318.9 595 1348.5 601.7C1373.1 607.3 1403.6 619.1 1416.9 628.3C1423.8 633 1436 645 1438.1 649.2C1439.1 651.2 1440.5 655.2 1441.1 657.9C1442 662.3 1441.9 663.3 1439.9 667.2C1438.7 669.5 1436.2 673.3 1434.5 675.5C1432.7 677.7 1427.9 684.3 1423.9 690.1C1413.5 704.9 1400 724 1389.7 738.3C1384.9 745 1378.6 753.9 1375.8 758C1373 762.1 1367.6 769.8 1363.9 775C1360.2 780.2 1355 787.6 1352.3 791.3C1349.7 795 1346.2 799.8 1344.5 801.9C1341.7 805.6 1324.7 829.4 1322.5 832.7C1318.6 838.9 1312.8 847.1 1302.1 862.1C1295.2 871.7 1287.8 882.1 1285.6 885.3C1283.3 888.5 1279.4 893.8 1276.7 897.1C1274.1 900.5 1271.3 904.4 1270.5 906C1268.8 909.4 1262.5 918.4 1256 927C1253.3 930.6 1247.8 938.2 1243.8 944C1239.7 949.8 1233.5 958.5 1230 963.5C1226.5 968.5 1222.7 973.9 1221.6 975.5C1220.4 977.2 1215.7 983.8 1211 990.3C1201.2 1003.8 1196.4 1011.3 1195.1 1015.2L1194.1 1018L1209.3 1018C1227.4 1018 1257.7 1019.6 1267.5 1021C1271.3 1021.5 1280.9 1022.7 1288.8 1023.5C1307.8 1025.4 1321.9 1028 1351.5 1034.7C1376.1 1040.3 1406.6 1052.1 1419.9 1061.3C1426.8 1066 1439 1078 1441.1 1082.2C1442.1 1084.2 1443.5 1088.2 1444.1 1090.9C1445 1095.3 1444.9 1096.3 1442.9 1100.2C1441.7 1102.5 1439.2 1106.3 1437.5 1108.5C1435.7 1110.7 1430.9 1117.3 1426.9 1123.1C1416.5 1137.9 1403 1157 1392.7 1171.3C1387.9 1178 1381.6 1186.9 1378.8 1191C1376 1195.1 1370.6 1202.8 1366.9 1208C1363.2 1213.2 1358 1220.6 1355.3 1224.3C1352.7 1228 1349.2 1232.8 1347.5 1234.9C1344.7 1238.6 1327.7 1262.4 1325.5 1265.7C1321.6 1271.9 1315.8 1280.1 1305.1 1295.1C1298.2 1304.7 1290.8 1315.1 1288.6 1318.3C1286.3 1321.5 1282.4 1326.8 1279.7 1330.1C1277.1 1333.5 1274.3 1337.4 1273.5 1339C1271.8 1342.4 1265.5 1351.4 1259 1360C1256.3 1363.6 1250.8 1371.2 1246.8 1377C1242.7 1382.8 1236.5 1391.5 1233 1396.5C1229.5 1401.5 1225.7 1406.9 1224.6 1408.5C1223.4 1410.2 1218.7 1416.8 1214 1423.2C1204.7 1436.1 1198 1446.8 1198 1448.7C1198 1449.7 1201.6 1450 1212.8 1450C1230.5 1450 1260.8 1451.6 1270.5 1453C1274.3 1453.5 1283.9 1454.7 1291.8 1455.5C1310.8 1457.4 1324.9 1460 1354.5 1466.7C1379.1 1472.3 1409.6 1484.1 1422.9 1493.3C1429.8 1498 1442 1510 1444.1 1514.2C1445.1 1516.2 1446.5 1520.2 1447.1 1522.9C1448 1527.3 1447.9 1528.3 1445.9 1532.2C1444.7 1534.5 1442.2 1538.3 1440.5 1540.5C1438.7 1542.7 1433.9 1549.3 1429.9 1555.1C1419.5 1569.9 1406 1589 1395.7 1603.3C1390.9 1610 1384.6 1618.9 1381.8 1623C1379 1627.1 1373.6 1634.8 1369.9 1640C1366.2 1645.2 1361 1652.6 1358.3 1656.3C1355.7 1660 1352.2 1664.8 1350.5 1666.9C1347.7 1670.6 1330.7 1694.4 1328.5 1697.7C1324.6 1703.9 1318.8 1712.1 1308.1 1727.1C1301.2 1736.7 1293.8 1747.1 1291.6 1750.3C1289.3 1753.5 1285.4 1758.8 1282.7 1762.1C1280.1 1765.5 1277.3 1769.4 1276.5 1771C1274.8 1774.4 1268.5 1783.4 1262 1792C1259.3 1795.6 1253.8 1803.2 1249.8 1809C1245.7 1814.8 1239.7 1823.3 1236.4 1828C1233.1 1832.7 1228.6 1839 1226.5 1842C1224.4 1845 1219.7 1851.5 1216.2 1856.5C1206 1870.6 1204.1 1873.5 1201.5 1879.4C1199.9 1883.1 1198.1 1885.4 1196.1 1886.4C1193.4 1887.8 1193 1887.8 1190.6 1885.9ZM1196.2 1866.6C1200.3 1861.5 1219.9 1834.1 1221.1 1831.8C1221.7 1830.7 1227.3 1822.9 1233.5 1814.5C1239.7 1806.1 1245.5 1798 1246.4 1796.4C1247.2 1794.8 1251.3 1789 1255.4 1783.5C1259.6 1778 1266.6 1768.2 1271 1761.8C1278.2 1751.2 1296.1 1725.9 1304.8 1714C1315.1 1700 1320.9 1691.7 1325.1 1685.5C1330.3 1677.9 1334.3 1672.1 1346.6 1654.9C1351 1648.6 1359.2 1637 1364.8 1629C1377.7 1610.5 1377.8 1610.3 1386.2 1599C1390.1 1593.8 1394.7 1587.2 1396.6 1584.5C1398.5 1581.8 1401.9 1576.8 1404.3 1573.5C1410.9 1564.4 1419.3 1552.4 1425.6 1543.3C1430.3 1536.4 1431.1 1534.8 1430 1533.5C1428.9 1532.2 1421.6 1532 1372.4 1532C1328.6 1532 1315.9 1531.7 1315.1 1530.8C1314.5 1530.1 1312.5 1527.5 1310.7 1525C1303.8 1515.6 1293.5 1510.2 1270.9 1504.1C1264.5 1502.4 1252.5 1500 1244.4 1498.8C1230.8 1496.7 1226.1 1496.5 1191.5 1496.5C1157.4 1496.6 1152 1496.8 1138.6 1498.8C1130.4 1500 1120.4 1501.9 1116.2 1503C1112 1504.1 1107.9 1505 1107.1 1505C1105.2 1505 1090.2 1510.8 1084.3 1513.8C1078.1 1517 1073 1521.9 1071 1526.6C1069.3 1530.5 1069 1530.7 1063.9 1531.3C1060.9 1531.7 1034.4 1532 1004.9 1532C956 1532 951.2 1532.1 950.6 1533.6C950.2 1534.6 950.6 1536.2 951.5 1537.4C952.3 1538.6 954.2 1541.3 955.7 1543.5C958.4 1547.6 968.2 1561 977.9 1573.9C981 1577.9 984.6 1582.9 986 1585C989.6 1590.4 994 1596.6 1005.5 1612.1C1011 1619.6 1017.8 1628.9 1020.5 1632.8C1023.2 1636.7 1027.8 1643 1030.5 1646.7C1033.3 1650.4 1037.7 1656.7 1040.4 1660.5C1045.3 1667.6 1046.3 1669 1062.5 1691.1C1067.5 1697.9 1076.5 1710.2 1082.5 1718.6C1088.5 1727 1097.3 1739.1 1102 1745.5C1106.7 1751.8 1111.8 1759.3 1113.5 1761.9C1116.1 1766.1 1122.8 1775.2 1133.9 1789.8C1135.3 1791.7 1137.6 1794.9 1139 1797C1140.4 1799.1 1146.2 1807.3 1152 1815.1C1157.8 1823 1163.4 1830.9 1164.5 1832.7C1165.6 1834.5 1169.7 1840.1 1173.6 1845.2C1177.5 1850.3 1183.2 1858 1186.3 1862.2C1189.5 1866.5 1192.3 1870 1192.8 1870C1193.2 1870 1194.7 1868.5 1196.2 1866.6ZM1435 1519.6C1435 1517 1433.7 1515.3 1427.4 1509.2C1419.2 1501.4 1411.9 1496.9 1397.5 1490.7C1361.1 1475 1303.2 1463.2 1246 1459.9C1222 1458.5 1152.1 1458.5 1134.5 1459.9C1096.3 1462.8 1049.7 1470 1026.2 1476.6C1008.6 1481.5 1002.4 1483.3 1001.5 1484C1001 1484.5 997.6 1485.8 994 1487C985.7 1489.8 968.9 1498.2 963 1502.5C956.8 1507.1 945.7 1518.7 946.2 1520.2C946.5 1520.9 947.7 1521.7 949.1 1522.1C950.4 1522.5 975.9 1522.8 1005.7 1522.9L1059.9 1523L1064.1 1518C1066.4 1515.3 1071 1511.3 1074.4 1509.1C1081.7 1504.3 1098.4 1497.6 1107.7 1495.6C1141.1 1488.4 1146.9 1487.7 1183.5 1487.3C1203.5 1487 1220 1487.2 1225.5 1487.9C1230.5 1488.5 1239 1489.5 1244.5 1490.1C1255.5 1491.3 1276.8 1495.9 1287 1499.2C1299.2 1503.1 1309 1508.8 1316 1515.9L1322.5 1522.5L1377.5 1523C1407.7 1523.3 1433.1 1523.3 1433.8 1523.1C1434.4 1522.9 1435 1521.4 1435 1519.6ZM1193.2 1434.6C1197.3 1429.5 1216.9 1402.1 1218.1 1399.8C1218.7 1398.7 1224.3 1390.9 1230.5 1382.5C1236.7 1374.1 1242.5 1366 1243.4 1364.4C1244.2 1362.8 1248.3 1357 1252.4 1351.5C1256.6 1346 1263.6 1336.2 1268 1329.8C1275.2 1319.2 1293.1 1293.9 1301.8 1282C1312.1 1268 1317.9 1259.7 1322.1 1253.5C1327.3 1245.9 1331.3 1240.1 1343.6 1222.9C1348 1216.6 1356.2 1205 1361.8 1197C1374.7 1178.5 1374.8 1178.3 1383.2 1167C1387.1 1161.8 1391.7 1155.2 1393.6 1152.5C1395.5 1149.8 1398.9 1144.8 1401.3 1141.5C1407.9 1132.4 1416.3 1120.4 1422.6 1111.3C1427.3 1104.4 1428.1 1102.8 1427 1101.5C1425.9 1100.2 1418.6 1100 1369.4 1100C1325.6 1100 1312.9 1099.7 1312.1 1098.8C1311.5 1098.1 1309.5 1095.5 1307.7 1093C1300.8 1083.6 1290.5 1078.2 1267.9 1072.1C1261.5 1070.4 1249.5 1068 1241.4 1066.8C1227.8 1064.7 1223.1 1064.5 1188.5 1064.5C1154.4 1064.6 1149 1064.8 1135.6 1066.8C1127.4 1068 1117.4 1069.9 1113.2 1071C1109 1072.1 1104.9 1073 1104.1 1073C1102.2 1073 1087.2 1078.8 1081.3 1081.8C1075.1 1085 1070 1089.9 1068 1094.6C1066.3 1098.5 1066 1098.7 1060.9 1099.3C1057.9 1099.7 1031.4 1100 1001.9 1100C953 1100 948.2 1100.1 947.6 1101.6C947.2 1102.6 947.6 1104.2 948.5 1105.4C949.3 1106.6 951.2 1109.3 952.7 1111.5C955.4 1115.6 965.2 1129 974.9 1141.9C978 1145.9 981.6 1150.9 983 1153C986.6 1158.4 991 1164.6 1002.5 1180.1C1008 1187.6 1014.8 1196.9 1017.5 1200.8C1020.2 1204.7 1024.8 1211 1027.5 1214.7C1030.3 1218.4 1034.7 1224.7 1037.4 1228.5C1042.3 1235.6 1043.3 1237 1059.5 1259.1C1064.5 1265.9 1073.5 1278.2 1079.5 1286.6C1085.5 1295 1094.3 1307.1 1099 1313.5C1103.7 1319.8 1108.8 1327.3 1110.5 1329.9C1113.1 1334.1 1119.8 1343.2 1130.9 1357.8C1132.3 1359.7 1134.6 1362.9 1136 1365C1137.4 1367.1 1143.2 1375.3 1149 1383.1C1154.8 1391 1160.4 1398.9 1161.5 1400.7C1162.6 1402.5 1166.7 1408.1 1170.6 1413.2C1174.5 1418.3 1180.2 1426 1183.3 1430.2C1186.5 1434.5 1189.3 1438 1189.8 1438C1190.2 1438 1191.7 1436.5 1193.2 1434.6ZM1432 1087.6C1432 1085 1430.7 1083.3 1424.4 1077.2C1416.2 1069.4 1408.9 1064.9 1394.5 1058.7C1358.1 1043 1300.2 1031.2 1243 1027.9C1219 1026.5 1149.1 1026.5 1131.5 1027.9C1093.3 1030.8 1046.7 1038 1023.2 1044.6C1005.6 1049.5 999.4 1051.3 998.5 1052C998 1052.5 994.6 1053.8 991 1055C982.7 1057.8 965.9 1066.2 960 1070.5C953.8 1075.1 942.7 1086.7 943.2 1088.2C943.5 1088.9 944.7 1089.7 946.1 1090.1C947.4 1090.5 972.9 1090.8 1002.7 1090.9L1056.9 1091L1061.1 1086C1063.4 1083.3 1068 1079.3 1071.4 1077.1C1078.7 1072.3 1095.4 1065.6 1104.7 1063.6C1138.1 1056.4 1143.9 1055.7 1180.5 1055.3C1200.5 1055 1217 1055.2 1222.5 1055.9C1227.5 1056.5 1236 1057.5 1241.5 1058.1C1252.5 1059.3 1273.8 1063.9 1284 1067.2C1296.2 1071.1 1306 1076.8 1313 1083.9L1319.5 1090.5L1374.5 1091C1404.7 1091.3 1430.1 1091.3 1430.8 1091.1C1431.4 1090.9 1432 1089.4 1432 1087.6ZM1190.2 1001.6C1194.3 996.5 1213.9 969.1 1215.1 966.8C1215.7 965.7 1221.3 957.9 1227.5 949.5C1233.7 941.1 1239.5 933 1240.4 931.4C1241.2 929.8 1245.3 924 1249.4 918.5C1253.6 913 1260.6 903.2 1265 896.8C1272.2 886.2 1290.1 860.9 1298.8 849C1309.1 835 1314.9 826.7 1319.1 820.5C1324.3 812.9 1328.3 807.1 1340.6 789.9C1345 783.6 1353.2 772 1358.8 764C1371.7 745.5 1371.8 745.3 1380.2 734C1384.1 728.8 1388.7 722.2 1390.6 719.5C1392.5 716.8 1395.9 711.8 1398.3 708.5C1404.9 699.4 1413.3 687.4 1419.6 678.3C1424.3 671.4 1425.1 669.8 1424 668.5C1422.9 667.2 1415.6 667 1366.4 667C1322.6 667 1309.9 666.7 1309.1 665.8C1308.5 665.1 1306.5 662.5 1304.7 660C1297.8 650.6 1287.5 645.2 1264.9 639.1C1258.5 637.4 1246.5 635 1238.4 633.8C1224.8 631.7 1220.1 631.5 1185.5 631.5C1151.4 631.6 1146 631.8 1132.6 633.8C1124.4 635 1114.4 636.9 1110.2 638C1106 639.1 1101.9 640 1101.1 640C1099.2 640 1084.2 645.8 1078.3 648.8C1072.1 652 1067 656.9 1065 661.6C1063.3 665.5 1063 665.7 1057.9 666.3C1054.9 666.7 1028.4 667 998.9 667C950 667 945.2 667.1 944.6 668.6C944.2 669.6 944.6 671.2 945.5 672.4C946.3 673.6 948.2 676.3 949.7 678.5C952.4 682.6 962.2 696 971.9 708.9C975 712.9 978.6 717.9 980 720C983.6 725.4 988 731.6 999.5 747.1C1005 754.6 1011.8 763.9 1014.5 767.8C1017.2 771.7 1021.8 778 1024.5 781.7C1027.3 785.4 1031.7 791.6 1034.4 795.5C1039.3 802.6 1040.3 804 1056.5 826.1C1061.5 832.9 1070.5 845.2 1076.5 853.6C1082.5 862 1091.3 874.1 1096 880.5C1100.7 886.8 1105.8 894.3 1107.5 896.9C1110.1 901.1 1116.8 910.2 1127.9 924.8C1129.3 926.7 1131.6 929.9 1133 932C1134.4 934.1 1140.2 942.3 1146 950.1C1151.8 958 1157.4 965.9 1158.5 967.7C1159.6 969.5 1163.7 975.1 1167.6 980.2C1171.5 985.3 1177.2 993 1180.3 997.2C1183.5 1001.5 1186.3 1005 1186.8 1005C1187.2 1005 1188.7 1003.5 1190.2 1001.6ZM1429 654.6C1429 652 1427.7 650.3 1421.4 644.2C1413.2 636.4 1405.9 631.9 1391.5 625.7C1355.1 610 1297.2 598.2 1240 594.9C1216 593.5 1146.1 593.5 1128.5 594.9C1090.3 597.8 1043.7 605 1020.2 611.6C1002.6 616.5 996.4 618.3 995.5 619C995 619.5 991.6 620.8 988 622C979.7 624.8 962.9 633.2 957 637.5C950.8 642.1 939.7 653.7 940.2 655.2C940.5 655.9 941.7 656.7 943.1 657.1C944.4 657.5 969.9 657.8 999.7 657.9L1053.9 658L1058.1 653C1060.4 650.3 1065 646.3 1068.4 644.1C1075.7 639.3 1092.4 632.6 1101.7 630.6C1135.1 623.4 1140.9 622.7 1177.5 622.3C1197.5 622 1214 622.2 1219.5 622.9C1224.5 623.5 1233 624.5 1238.5 625.1C1249.5 626.3 1270.8 630.9 1281 634.2C1293.2 638.1 1303 643.8 1310 650.9L1316.5 657.5L1371.5 658C1401.7 658.3 1427.1 658.3 1427.8 658.1C1428.4 657.9 1429 656.4 1429 654.6ZM931.2 645.6C935.3 640.5 954.9 613.1 956.1 610.8C956.7 609.7 962.3 601.9 968.5 593.5C974.7 585.1 980.5 577 981.4 575.4C982.2 573.8 986.3 568 990.4 562.5C994.6 557 1001.6 547.2 1006 540.8C1013.2 530.2 1031.1 504.9 1039.8 493C1050.1 479 1055.9 470.7 1060.1 464.5C1065.3 456.9 1069.3 451.1 1081.6 433.9C1086 427.6 1094.2 416 1099.8 408C1112.7 389.5 1112.8 389.3 1121.2 378C1125.1 372.8 1129.7 366.2 1131.6 363.5C1133.5 360.8 1136.9 355.8 1139.3 352.5C1145.9 343.4 1154.3 331.4 1160.6 322.3C1165.3 315.4 1166.1 313.8 1165 312.5C1163.9 311.2 1156.6 311 1107.4 311C1063.6 311 1050.9 310.7 1050.1 309.8C1049.5 309.1 1047.5 306.5 1045.7 304C1038.8 294.6 1028.5 289.2 1005.9 283.1C999.5 281.4 987.5 279 979.4 277.8C965.8 275.7 961.1 275.5 926.5 275.5C892.4 275.6 887 275.8 873.6 277.8C865.4 279 855.4 280.9 851.2 282C847 283.1 842.9 284 842.1 284C840.2 284 825.2 289.8 819.3 292.8C813.1 296 808 300.9 806 305.6C804.3 309.5 804 309.7 798.9 310.3C795.9 310.7 769.4 311 739.9 311C691 311 686.2 311.1 685.6 312.6C685.2 313.6 685.6 315.2 686.5 316.4C687.3 317.6 689.2 320.3 690.7 322.5C693.4 326.6 703.2 340 712.9 352.9C716 356.9 719.6 361.9 721 364C724.6 369.4 729 375.6 740.5 391.1C746 398.6 752.8 407.9 755.5 411.8C758.2 415.7 762.8 422 765.5 425.7C768.3 429.4 772.7 435.6 775.4 439.5C780.3 446.6 781.3 448 797.5 470.1C802.5 476.9 811.5 489.2 817.5 497.6C823.5 506 832.3 518.1 837 524.5C841.7 530.8 846.9 538.3 848.5 540.9C851.1 545.1 857.8 554.2 868.9 568.8C870.3 570.7 872.6 573.9 874 576C875.4 578.1 881.2 586.3 887 594.1C892.8 602 898.4 609.9 899.5 611.7C900.6 613.5 904.7 619.1 908.6 624.2C912.5 629.3 918.2 637 921.3 641.2C924.5 645.5 927.3 649 927.8 649C928.2 649 929.7 647.5 931.2 645.6ZM297.1 348.4C290 346.5 285.5 343 284.6 338.9C284.3 337.2 284 324.2 284 310C284 294.4 283.6 283.1 282.9 281.2C282.3 279.5 280.1 277 277.7 275.4C273.8 272.9 272.6 272.6 260.9 272.2C245.5 271.6 239.9 272.4 236.2 275.5C231.3 279.6 230.7 283.2 230.1 312.7C229.5 339.4 229.5 339.9 227.2 342.3C225.9 343.7 222.5 345.8 219.7 347C213.7 349.6 207.5 349.3 201.1 346.1C197.6 344.2 197 343.5 196.1 338.8C195.4 335.4 195.1 308.8 195.2 263.5C195.2 225 194.9 191 194.5 187.9C193.8 182.3 193.8 182.3 197.6 179.2C204.6 173.4 215.8 171.3 222.1 174.6C224 175.6 226 177.9 227.3 180.8C229.3 185.1 229.5 187.3 229.7 207.2C229.9 231 230.3 233 235.9 236.9C242.4 241.5 245.6 242 261 240.4C276 238.9 280.6 237.3 283.2 232.7C284.1 231.1 284.5 223.3 284.5 206.3L284.5 182.2L287.6 178.3C292.2 172.6 294.9 171.6 302.3 172.9C305.7 173.5 309.6 174.8 311 175.8C316.1 179.6 316.2 181.6 316.7 262.7L317.2 337.9L314.6 342.5C311.9 347 307.7 350.1 304.3 349.9C303.3 349.9 300.1 349.2 297.1 348.4ZM1170 298.6C1170 296 1168.7 294.3 1162.4 288.2C1154.2 280.4 1146.9 275.9 1132.5 269.7C1096.1 254 1038.2 242.2 981 238.9C957 237.5 887.1 237.5 869.5 238.9C831.3 241.8 784.7 249 761.2 255.6C743.6 260.5 737.4 262.3 736.5 263C736 263.5 732.6 264.8 729 266C720.7 268.8 703.9 277.2 698 281.5C691.8 286.1 680.7 297.7 681.2 299.2C681.5 299.9 682.7 300.7 684.1 301.1C685.4 301.5 710.9 301.8 740.7 301.9L794.9 302L799.1 297C801.4 294.3 806 290.3 809.4 288.1C816.7 283.3 833.4 276.6 842.7 274.6C876.1 267.4 881.9 266.7 918.5 266.3C938.5 266 955 266.2 960.5 266.9C965.5 267.5 974 268.5 979.5 269.1C990.5 270.3 1011.8 274.9 1022 278.2C1034.2 282.1 1044 287.8 1051 294.9L1057.5 301.5L1112.5 302C1142.7 302.3 1168.1 302.3 1168.8 302.1C1169.4 301.9 1170 300.4 1170 298.6Z"/></svg>