<svg xmlns="http://www.w3.org/2000/svg" width="1100" height="1119" viewBox="0 0 2436 2478"><path fill="#000" fill-rule="evenodd" d="M1741 2351.9C1732.7 2350.6 1704.9 2336.7 1700 2331.4C1694.8 2325.7 1682.4 2300.3 1680.5 2291.5C1678.1 2279.6 1676.7 2263 1677.3 2252.5C1678.7 2227.9 1685.6 2210.4 1700.1 2194.7C1705.7 2188.6 1708.8 2186.3 1720.6 2179.8C1728.6 2175.3 1736.7 2171.6 1739.7 2171C1742.7 2170.3 1752.4 2170 1763.3 2170.2L1781.8 2170.5L1790.1 2174.7C1794.7 2177.1 1801.9 2181.2 1806.1 2183.9C1812.7 2188.1 1814.5 2189.9 1819.8 2197.9C1827.2 2208.9 1828.7 2213.4 1826.6 2218.4C1825 2222.2 1820.7 2225 1816.5 2225C1811.9 2225 1808.3 2222.2 1804.4 2215.8C1799.9 2208.3 1788.3 2196.4 1782 2192.7C1773 2187.5 1755.6 2185.4 1745.7 2188.4C1739.1 2190.4 1720.7 2202.4 1715.9 2207.9C1710.5 2214 1709.8 2215.5 1705.3 2230.6L1701.5 2243.5L1701.6 2261.5C1701.6 2279.4 1701.6 2279.6 1705.3 2291.5C1707.4 2298.1 1710 2305.3 1711.1 2307.7C1714.9 2315.6 1731.8 2328.7 1743.1 2332.6C1750 2335 1763.7 2335.5 1770.2 2333.6C1777 2331.7 1792.1 2321.8 1797.5 2315.9C1799.6 2313.6 1803 2308 1805.1 2303.5C1809.2 2294.6 1812.6 2291 1817.2 2291C1823.1 2291 1829.9 2295.6 1831.4 2300.7C1832.3 2303.5 1830.1 2308.5 1824.7 2316.2C1822.3 2319.7 1819.1 2324.7 1817.6 2327.3C1814.3 2333 1808.9 2336.7 1791.5 2345.2C1784.1 2348.8 1777 2351.4 1773.4 2352C1766.3 2353.2 1748.6 2353.1 1741 2351.9ZM524.5 2351.3C513.9 2349.8 502.4 2344.5 491.8 2336.3C482 2328.8 474.9 2318.3 471.9 2306.8C470.8 2302.9 470.9 2301.8 472.6 2298.4C474.1 2295.3 475.3 2294.3 478.3 2293.5C483.9 2292.2 486.5 2294 493.4 2304.5C501.6 2316.9 507.4 2322.3 515.2 2324.9C524.6 2327.9 532.8 2329.9 541.3 2331C548.3 2332 549.4 2331.9 556.5 2329.5C566.2 2326.3 578.9 2319.9 581.7 2316.8C586.7 2311.4 588.7 2297.4 585.4 2290.5C581.1 2281.4 560.5 2272.7 532.7 2268C526 2266.9 517.6 2265 514 2263.8C503.2 2260.4 485.8 2251.6 482.2 2247.8C478.8 2244.2 471.9 2229.5 469.9 2221.5C468.3 2215.3 469.8 2209.3 475.8 2197L480.5 2187.6L489.7 2182.4C494.8 2179.6 502.7 2175.8 507.2 2173.9L515.5 2170.5L534.9 2170.2C553.6 2169.9 554.7 2170 562.9 2172.5C574.3 2176.1 584.3 2180.9 591.9 2186.5C596.8 2190.1 598.7 2192.3 600.5 2196.5C604 2204.3 606.2 2213.9 605.5 2217.7C604.5 2223.3 595.7 2226.1 591.1 2222.2C589.9 2221.3 586.6 2216.9 583.7 2212.5C578 2203.7 572.9 2199.6 563.3 2196C552.7 2192.1 546.8 2191 535.3 2191C525.1 2191 523.3 2191.3 516.5 2194C496 2202.2 491 2206.6 491 2216.5C491 2222.5 493.2 2227 498.2 2231.6C503.4 2236.3 506.8 2237.6 521.9 2240.9C544.2 2245.8 579.2 2255.9 583.5 2258.7C585.7 2260.2 590.7 2264.5 594.7 2268.5C601.6 2275.4 601.9 2275.9 605.1 2286C609.5 2300.1 609.4 2303.9 604.1 2317.4C600.8 2325.6 598.8 2329.2 595.7 2332.1C590.6 2337.1 579.1 2344.3 569.8 2348.3C562.6 2351.4 562.2 2351.4 545 2351.6C535.4 2351.7 526.1 2351.6 524.5 2351.3ZM688.9 2349.7L685.5 2347.4L685 2272.5C684.6 2216.9 684.2 2197 683.3 2195.4C680.5 2190.6 680 2190.5 656.3 2190.5L633.8 2190.5L630.9 2187.3C627 2182.8 626.3 2179.5 628.5 2175.4C629.5 2173.6 631 2171.8 631.9 2171.3C632.8 2170.9 662.4 2170.4 697.6 2170.2L761.8 2169.9L763.9 2172.6C766.9 2176.4 767.5 2179.5 765.8 2183.8C763.6 2189.5 761.6 2190.1 736.8 2191C713 2192 711.1 2192.4 708.7 2197.8C707.9 2199.7 707.4 2221.3 707 2273.5C706.7 2313.7 706.1 2347.1 705.6 2347.9C704.4 2349.7 698.7 2352 695.2 2352C693.6 2352 690.8 2351 688.9 2349.7ZM794.4 2350.9C792.1 2350.3 789.4 2349 788.4 2347.9C786.6 2345.9 786.5 2342.6 786.6 2264.6C786.6 2220 787 2181.4 787.4 2178.7C788.7 2170 785.2 2170.5 850.6 2170.5C913.1 2170.5 909.9 2170.2 912 2176.5C913.4 2180.9 911.1 2186.4 906.6 2189.1C903.7 2190.9 900.8 2191 861.5 2191C816.5 2191 816.5 2191 812.7 2196.2C811.1 2198.3 810.6 2201.5 809.8 2212.7C809.2 2220.7 809.2 2228.5 809.7 2231.1C811.2 2238.8 811 2238.7 859.2 2239.7C899.2 2240.5 901 2240.6 903.7 2242.6C907.9 2245.7 908.7 2249 906.4 2253.6C903.2 2260.1 903.3 2260.1 858 2260.9L817.2 2261.5L814.6 2263.9C810.3 2267.9 809.8 2271.6 810.2 2298C810.5 2325 811.1 2327.6 816.7 2329.8C818.6 2330.6 834.6 2331 866 2331.2C908.5 2331.5 912.8 2331.7 915.8 2333.3C919.7 2335.5 922.5 2340.7 921.6 2344.4C920.4 2349.1 917.6 2350.7 908.7 2351.3C896.1 2352.3 799.1 2351.9 794.4 2350.9ZM1244 2350.5C1230.6 2347.7 1217.7 2341.9 1210 2335.3C1206.1 2331.9 1196.3 2318.4 1192.6 2311.3C1189.4 2305 1191.3 2296.6 1196.5 2294.2C1203.6 2290.9 1210.7 2295.5 1216.6 2307.2C1219.8 2313.4 1225.4 2319.6 1229.9 2322C1231.9 2323 1238 2325.2 1243.5 2327C1253.1 2330 1254.1 2330.2 1267 2329.8C1279.7 2329.5 1281 2329.2 1288.5 2326C1298.3 2321.9 1304 2316.4 1307 2308.2C1310.9 2297.8 1307.4 2289.4 1295.9 2282C1285.9 2275.6 1276.6 2272.3 1258.8 2269C1249.8 2267.4 1239.2 2264.9 1235.4 2263.6C1226.9 2260.7 1210.8 2253.8 1207.6 2251.6C1204.3 2249.5 1192.5 2231.5 1191 2226.4C1190.3 2224.1 1189.9 2218.9 1190.1 2214.8C1190.5 2208.5 1191 2206.5 1194 2201.6C1195.9 2198.4 1200.1 2193 1203.2 2189.6C1207.8 2184.5 1210.8 2182.4 1219.2 2178.2C1233.6 2171 1238.3 2170 1257.5 2170C1280.4 2170 1290.6 2172.6 1306.7 2182.6C1317.7 2189.4 1326.6 2202.2 1327.7 2212.6C1328.2 2217.5 1328.1 2218.1 1325.2 2220.9C1321.6 2224.5 1318.4 2224.8 1312.5 2222.1C1309.1 2220.6 1307.8 2219 1304 2212C1301.6 2207.5 1298.1 2202.7 1296.4 2201.3C1294.6 2200 1288.5 2197.2 1282.8 2195.2C1272.7 2191.6 1272.2 2191.5 1258.5 2191.6C1242.7 2191.7 1238.9 2192.5 1227.2 2198.1C1218.3 2202.4 1214 2206.8 1211.9 2214.1C1210.3 2219.3 1211.2 2221.7 1217 2228.2C1223.9 2236 1227.1 2237.7 1239.1 2240.1C1255.1 2243.2 1299 2255.8 1303.6 2258.5C1311 2262.9 1321.6 2274.5 1325.7 2282.8C1329.4 2290.1 1329.5 2290.8 1329.5 2300.9C1329.5 2311.4 1329.5 2311.5 1325.7 2317.7C1317.6 2331 1313.4 2335.6 1303.7 2341.7C1290.1 2350.3 1286.6 2351.2 1267 2351.6C1255.5 2351.8 1248.5 2351.5 1244 2350.5ZM1412.4 2350.6C1410.6 2349.8 1408.8 2348.6 1408.4 2347.8C1407.9 2347.1 1407.3 2313.9 1407 2274C1406.5 2209.6 1406.3 2201.1 1404.8 2197.8C1403.9 2195.8 1402.2 2193.7 1401.1 2193C1399.9 2192.4 1389.3 2191.5 1376.4 2191C1364 2190.4 1353 2189.5 1351.9 2188.9C1349.1 2187.5 1346 2182 1346 2178.7C1346 2173.8 1349.7 2171.3 1358.1 2170.5C1362.2 2170.2 1391.7 2170 1423.8 2170.2L1482.1 2170.5L1484 2173C1487.9 2178.2 1486.7 2185 1481 2188.8C1477.5 2191.1 1477.2 2191.2 1456.4 2190.8C1432.6 2190.5 1432.1 2190.6 1429.9 2197.9C1429.2 2200.3 1428.7 2226.8 1428.3 2274.9L1427.7 2348.2L1424.6 2350.1C1421 2352.3 1416.8 2352.5 1412.4 2350.6ZM1506 2351.3C1498.8 2348.7 1498.1 2339.7 1504.5 2333C1507.2 2330.1 1508.2 2327.7 1511.7 2316C1513 2311.3 1516.6 2301.7 1519.6 2294.5C1522.7 2287.4 1525.8 2278.8 1526.5 2275.5C1527.3 2272.2 1529.9 2265.4 1532.4 2260.5C1534.8 2255.6 1538.1 2247.5 1539.5 2242.6C1541 2237.7 1544.2 2229.2 1546.5 2223.6C1548.9 2218 1551.6 2210.7 1552.4 2207.2C1554.6 2199 1560.7 2184.9 1565.3 2177.8C1569.4 2171.4 1572.3 2170 1582.3 2170C1589.2 2170 1593 2172.2 1595 2177.2C1595.7 2179 1598.7 2185.7 1601.5 2192C1604.4 2198.3 1608.2 2208 1610 2213.5C1611.8 2219 1615 2226.9 1617 2231C1619 2235.1 1622 2242.3 1623.5 2246.9C1625 2251.5 1627.9 2258.9 1630 2263.4C1632 2267.8 1635.3 2276.5 1637.3 2282.6C1639.3 2288.7 1642.5 2296.7 1644.5 2300.3C1646.5 2304 1649.6 2311.6 1651.4 2317.2C1653.4 2323.4 1656.3 2330 1658.8 2333.9C1665.5 2344.2 1664.1 2350.1 1654.5 2351.5C1648.2 2352.5 1643.2 2351.5 1640.3 2348.8C1637 2345.8 1628 2327.6 1624.5 2317.1C1622.4 2310.8 1620.8 2307.8 1617.6 2304.5L1613.5 2300.3L1602 2299.6C1595.7 2299.3 1580.9 2298.9 1569.2 2298.8C1541.8 2298.6 1545 2296 1531.9 2328.5C1523.1 2350.4 1521.7 2352.1 1512.6 2351.9C1509.8 2351.9 1506.8 2351.6 1506 2351.3ZM1862.9 2349.7L1859.5 2347.4L1859.5 2261L1859.5 2174.6L1862.9 2172.3C1867.2 2169.4 1870.8 2169.4 1875.1 2172.3L1878.5 2174.6L1879 2211.6C1879.5 2250.8 1879.7 2252 1884.2 2252C1885.5 2252 1900.6 2237.7 1926.5 2212C1948.7 2190 1968 2171.6 1969.5 2171C1970.9 2170.5 1975.6 2170 1979.9 2170C1986.3 2170 1988.2 2170.4 1990.4 2172.1C1995.6 2176.2 1993.5 2180.5 1982.5 2188.5C1976.9 2192.6 1949.4 2219.6 1939.4 2230.7C1927.2 2244.4 1927.2 2247.2 1940 2264C1943.1 2268.1 1948.9 2276 1952.8 2281.5C1956.7 2287 1962.5 2294.9 1965.7 2299.2C1968.9 2303.4 1973.5 2310.1 1976 2314C1978.5 2318 1984.9 2326 1990.2 2331.8C1997.3 2339.5 2000 2343.1 2000 2344.9C2000 2350.1 1996.6 2352 1987.7 2352C1975.7 2352 1970.4 2348.8 1962.6 2336.6C1959.7 2332.1 1956 2326.9 1954.4 2325C1952.7 2323.1 1944.7 2311.4 1936.5 2299C1928.3 2286.6 1919.3 2274.2 1916.5 2271.3C1910.4 2265 1907.4 2264.5 1901.4 2268.8C1897.3 2271.8 1888.1 2281.4 1883.3 2287.7L1880.5 2291.3L1879.5 2319.4L1878.5 2347.4L1875.1 2349.7C1870.8 2352.6 1867.2 2352.6 1862.9 2349.7ZM958.3 2349C956.5 2347.9 954.8 2346 954.5 2344.8C953.6 2341.1 954.4 2177.7 955.4 2175.7C955.9 2174.7 957.7 2173.2 959.4 2172.2C962.2 2170.7 967.2 2170.5 1006.8 2170.2C1049.3 2169.9 1051.4 2169.9 1057.2 2171.9C1064.8 2174.5 1076 2181.4 1082.3 2187.5C1091.4 2196.2 1096.1 2212.2 1094.1 2227.5C1092 2243.1 1089.2 2249 1078.8 2260.3L1073.5 2266L1060.5 2269.5C1041.8 2274.6 1038.1 2275 1011.3 2275C997.7 2275 986 2275.4 984.5 2276C982.8 2276.6 981.2 2278.6 979.9 2281.5C978 2285.7 977.9 2288 978.1 2314.3C978.2 2344.9 977.9 2347 972.9 2349.6C968.9 2351.6 962.1 2351.4 958.3 2349ZM1604.4 2279.9C1607.5 2278.5 1609.3 2274.2 1608.4 2270.6C1608 2269.1 1606.1 2265.9 1604 2263.5C1601.1 2260.2 1599.8 2257.3 1598.1 2250.8C1591 2223.3 1582.4 2205 1576.5 2205C1573.7 2205 1573.2 2206.2 1569.1 2224.7C1567.1 2233.7 1564.5 2241.7 1561 2249.5C1554.5 2264.1 1553 2268.5 1553 2272.4C1553 2277 1555.1 2279.2 1560.1 2280C1567.6 2281.2 1601.6 2281.1 1604.4 2279.9ZM1052.7 2250.2C1058.6 2247.1 1064.6 2240.6 1068.2 2233.3C1072.1 2225.3 1071.8 2219.2 1067.1 2209.5C1063.5 2202.3 1059.9 2199 1049.8 2193.9L1044.1 2191L1016.8 2191C984.6 2191 982.6 2191.4 980 2197.4C978.4 2201 978.1 2204.7 977.8 2223.5C977.6 2235.6 977.9 2246.6 978.3 2247.8C980.1 2252.6 983 2253 1017 2252.7C1047.5 2252.5 1048.6 2252.4 1052.7 2250.2ZM1469.7 1621.4C1468.2 1620 1466.8 1617.8 1466.4 1616.6C1466.1 1615.5 1464.1 1612.2 1462 1609.5C1452.5 1596.7 1443.9 1584.9 1439.1 1578C1436.2 1573.9 1432.4 1568.7 1430.7 1566.4C1428.9 1564.1 1424.5 1558.1 1420.8 1552.9C1407.8 1534.8 1383 1500.4 1374.8 1489.1C1370.2 1482.9 1364.2 1474.5 1361.5 1470.6C1350.9 1455.2 1349.5 1453.3 1343.5 1445.5C1340.2 1441.1 1335.9 1435.2 1334 1432.5C1329.7 1426 1309.6 1398.1 1301 1386.5C1297.3 1381.5 1290.1 1371.6 1284.9 1364.4C1275.7 1351.6 1262.7 1333.7 1254.3 1322.2C1244.9 1309.5 1225.1 1281.6 1218.6 1271.8C1217.2 1269.8 1215.6 1267.9 1214.9 1267.5C1214.3 1267.1 1212 1264 1209.9 1260.7C1204.7 1252.7 1204.6 1248 1209.5 1238.2C1215.2 1227 1227 1217 1246.5 1207.1C1288.4 1185.9 1376.4 1170 1451.7 1170C1464.1 1170 1464.1 1170 1463.5 1167.8C1463.1 1166.5 1461.1 1163.2 1459 1160.5C1449.5 1147.7 1440.9 1135.9 1436.1 1129C1433.2 1124.9 1429.4 1119.7 1427.7 1117.4C1425.9 1115.1 1421.5 1109.1 1417.8 1103.9C1404.8 1085.8 1380 1051.4 1371.8 1040.1C1367.2 1033.9 1361.2 1025.5 1358.5 1021.6C1347.9 1006.2 1346.5 1004.3 1340.5 996.5C1337.2 992.1 1332.9 986.2 1331 983.5C1326.7 977 1306.6 949.1 1298 937.5C1294.3 932.5 1287.1 922.6 1281.9 915.4C1272.7 902.6 1259.7 884.7 1251.3 873.2C1243.2 862.2 1223.1 834 1216.5 824.4C1215.5 822.8 1213.1 819.8 1211.4 817.8C1209.6 815.8 1207.1 812.3 1205.8 810.1C1204.5 807.8 1203.3 806 1203 806.1C1202.7 806.1 1200.8 808.7 1198.8 811.8C1196.7 814.9 1190.3 824 1184.6 832C1178.9 840 1170.6 851.6 1166.3 857.8C1162 864 1155.8 872.9 1152.5 877.5C1143.4 890.2 1139.1 896.2 1137 899.5C1135.9 901.1 1133 905.2 1130.5 908.5C1128.1 911.8 1122.6 919.5 1118.4 925.5C1114.2 931.5 1108.9 939.1 1106.7 942.2C1104.4 945.4 1098.7 953.2 1094.1 959.7C1089.5 966.2 1084.6 972.9 1083.4 974.6C1082.1 976.4 1078.1 982.2 1074.5 987.5C1070.8 992.9 1063.1 1003.9 1057.2 1012.1C1051.3 1020.2 1044 1030.4 1041 1034.7C1038 1039 1033.9 1044.5 1031.9 1047C1029.9 1049.5 1027.3 1053.3 1026.2 1055.6C1025.1 1057.8 1023.4 1060.2 1022.6 1060.9C1021.7 1061.7 1021 1062.8 1021 1063.5C1021 1064.2 1019.3 1066.7 1017.2 1069.1C1015.1 1071.5 1011.5 1076.2 1009.1 1079.5C1002.9 1088.4 992.6 1103.1 983.5 1115.9C979.1 1122.1 974.8 1128.3 974 1129.6C973.2 1130.9 968.2 1137.9 962.9 1145.2C952.5 1159.7 948 1166.9 948 1169.2C948 1171.3 942.7 1176 940.3 1176C937.9 1176 933.4 1171.8 932.4 1168.6C932.1 1167.5 930.1 1164.2 928 1161.5C918.5 1148.7 909.9 1136.9 905.1 1130C902.2 1125.9 898.4 1120.7 896.7 1118.4C894.9 1116.1 890.5 1110.1 886.8 1104.9C873.8 1086.8 849 1052.4 840.8 1041.1C836.2 1034.9 830.2 1026.5 827.5 1022.6C816.9 1007.2 815.5 1005.3 809.5 997.5C806.2 993.1 801.9 987.2 800 984.5C795.7 978 775.6 950.1 767 938.5C763.3 933.5 756.1 923.6 750.9 916.4C741.7 903.6 728.7 885.7 720.3 874.2C710.9 861.5 691.1 833.6 684.6 823.8C683.2 821.8 681.6 819.9 680.9 819.5C680.3 819.1 678 816 675.9 812.7C670.7 804.7 670.6 800 675.5 790.2C681.2 779 693 769 712.5 759.1C748.1 741.1 818.8 726.3 884.9 723C926.8 720.9 997.1 722.2 1021 725.5C1026.8 726.3 1034.9 727.2 1039 727.5C1050.4 728.5 1081.2 733.7 1098.3 737.6C1120 742.5 1138.4 748.3 1154 754.9C1161.4 758.1 1167.7 760.6 1167.9 760.4C1168.1 760.2 1166.3 757.5 1163.9 754.4C1161.5 751.3 1157.5 745.9 1155 742.5C1141.4 723.5 1112.2 683.2 1102.8 670.1C1098.2 663.9 1092.2 655.5 1089.5 651.6C1078.9 636.2 1077.5 634.3 1071.5 626.5C1068.2 622.1 1063.9 616.2 1062 613.5C1057.7 607 1037.6 579.1 1029 567.5C1025.3 562.5 1018.1 552.6 1012.9 545.4C1003.7 532.6 990.7 514.7 982.3 503.2C972.9 490.5 953.1 462.6 946.6 452.8C945.2 450.8 943.6 448.9 942.9 448.5C942.3 448.1 940 445 937.9 441.7C932.7 433.7 932.6 429 937.5 419.2C943.2 408 955 398 974.5 388.1C1010.1 370.1 1080.8 355.3 1146.9 352C1188.8 349.9 1259.1 351.2 1283 354.5C1288.8 355.3 1296.9 356.2 1301 356.5C1312.4 357.5 1343.2 362.7 1360.3 366.6C1382 371.5 1400.4 377.2 1416.5 384.1C1432.8 391.1 1441.2 396.3 1451.6 406.2C1461.2 415.4 1464.1 420.2 1464.7 428.3C1465.3 435.4 1466 434 1446.6 461C1440.8 469 1432.6 480.6 1428.3 486.8C1424 493 1417.8 501.9 1414.5 506.5C1405.4 519.2 1401.1 525.2 1399 528.5C1397.9 530.1 1395 534.2 1392.5 537.5C1390.1 540.8 1384.6 548.5 1380.4 554.5C1376.2 560.5 1370.9 568.1 1368.7 571.2C1366.4 574.4 1360.7 582.2 1356.1 588.7C1351.5 595.2 1346.6 601.9 1345.4 603.6C1344.1 605.4 1340.1 611.2 1336.5 616.5C1332.8 621.9 1325.1 632.9 1319.2 641.1C1313.3 649.2 1306 659.4 1303 663.7C1300 668 1295.9 673.5 1293.9 676C1291.9 678.5 1289.3 682.3 1288.2 684.6C1287.1 686.8 1285.4 689.2 1284.6 689.9C1283.7 690.7 1283 691.8 1283 692.5C1283 693.2 1281.3 695.7 1279.2 698.1C1277.1 700.5 1273.5 705.2 1271.1 708.5C1264 718.6 1253.9 733 1245.5 744.9C1241.1 751.1 1237 757 1236.5 758C1235.9 759 1234.8 760.5 1234.1 761.4C1232.1 763.8 1233.1 763.4 1244.8 757.5C1278.8 740.2 1350.8 725.3 1415.9 722C1457.8 719.9 1528.1 721.2 1552 724.5C1557.8 725.3 1565.9 726.2 1570 726.5C1581.4 727.5 1612.2 732.7 1629.3 736.6C1651 741.5 1669.4 747.2 1685.5 754.1C1701.8 761.1 1710.2 766.3 1720.6 776.2C1730.2 785.4 1733.1 790.2 1733.7 798.3C1734.3 805.4 1735 804 1715.6 831C1709.8 839 1701.6 850.6 1697.3 856.8C1693 863 1686.8 871.9 1683.5 876.5C1674.4 889.2 1670.1 895.2 1668 898.5C1666.9 900.1 1664 904.2 1661.5 907.5C1659.1 910.8 1653.6 918.5 1649.4 924.5C1645.2 930.5 1639.9 938.1 1637.7 941.2C1635.4 944.4 1629.7 952.2 1625.1 958.7C1620.5 965.2 1615.6 971.9 1614.4 973.6C1613.1 975.4 1609.1 981.2 1605.5 986.5C1601.8 991.9 1594.1 1002.9 1588.2 1011.1C1582.3 1019.2 1575 1029.4 1572 1033.7C1569 1038 1564.9 1043.5 1562.9 1046C1560.9 1048.5 1558.3 1052.3 1557.2 1054.6C1556.1 1056.8 1554.4 1059.2 1553.6 1059.9C1552.7 1060.7 1552 1061.8 1552 1062.5C1552 1063.2 1550.3 1065.7 1548.2 1068.1C1546.1 1070.5 1542.5 1075.2 1540.1 1078.5C1533.9 1087.4 1523.6 1102.1 1514.5 1114.9C1510.1 1121.1 1505.8 1127.3 1505 1128.6C1504.2 1129.9 1499.2 1136.9 1493.9 1144.2C1483.2 1159 1479 1165.9 1479 1168.3C1479 1169.8 1480.4 1170 1490.2 1170C1508.2 1170 1543.6 1171.9 1555 1173.5C1560.8 1174.3 1568.9 1175.2 1573 1175.5C1584.4 1176.5 1615.2 1181.7 1632.3 1185.6C1654 1190.5 1672.4 1196.2 1688.5 1203.1C1704.8 1210.1 1713.2 1215.3 1723.6 1225.2C1733.2 1234.4 1736.1 1239.2 1736.7 1247.3C1737.3 1254.4 1738 1253 1718.6 1280C1712.8 1288 1704.6 1299.6 1700.3 1305.8C1696 1312 1689.8 1320.9 1686.5 1325.5C1677.4 1338.2 1673.1 1344.2 1671 1347.5C1669.9 1349.2 1667 1353.2 1664.5 1356.5C1662.1 1359.8 1656.6 1367.5 1652.4 1373.5C1648.2 1379.5 1642.9 1387.1 1640.7 1390.2C1638.4 1393.4 1632.7 1401.2 1628.1 1407.7C1623.5 1414.2 1618.6 1420.9 1617.4 1422.6C1616.1 1424.4 1612.1 1430.2 1608.5 1435.5C1604.8 1440.9 1597.1 1451.9 1591.2 1460.1C1585.3 1468.2 1578 1478.4 1575 1482.7C1572 1487 1567.9 1492.5 1565.9 1495C1563.9 1497.5 1561.3 1501.3 1560.2 1503.6C1559.1 1505.8 1557.4 1508.2 1556.6 1508.9C1555.7 1509.7 1555 1510.8 1555 1511.5C1555 1512.2 1553.3 1514.7 1551.2 1517.1C1549.1 1519.5 1545.5 1524.2 1543.1 1527.5C1536.9 1536.4 1526.6 1551.1 1517.5 1563.9C1513.1 1570.1 1508.8 1576.3 1508 1577.6C1507.2 1578.9 1502.2 1585.9 1496.9 1593.2C1486.5 1607.7 1482 1614.9 1482 1617.2C1482 1619.3 1476.7 1624 1474.3 1624C1473.2 1624 1471.1 1622.8 1469.7 1621.4ZM1478.4 1600.7C1486.6 1589.8 1498.6 1572.8 1501.5 1568.2C1503.2 1565.6 1509.7 1556.5 1516 1548C1522.3 1539.5 1528.9 1530.2 1530.6 1527.4C1532.3 1524.6 1537 1517.9 1541.1 1512.4C1545.2 1507 1552.8 1496.2 1558.1 1488.5C1563.3 1480.8 1572.5 1467.8 1578.5 1459.5C1584.4 1451.2 1591.4 1441.5 1593.9 1437.9C1596.4 1434.3 1600.4 1428.7 1602.8 1425.4C1605.2 1422.2 1610.2 1415 1614 1409.5C1622.6 1397 1631.8 1384 1639.1 1374.1C1642.2 1369.9 1648.9 1360.1 1654.1 1352.5C1659.3 1344.8 1667.4 1333.3 1672.1 1327C1676.8 1320.7 1682.3 1313 1684.4 1310C1686.4 1307 1690.4 1301.3 1693.1 1297.5C1695.8 1293.7 1700.3 1287.3 1703 1283.5C1705.7 1279.7 1709.6 1274.2 1711.5 1271.5C1719 1261.1 1720.2 1259 1719.7 1257.7C1718.8 1255.4 1709.3 1255 1653.4 1255L1600.1 1255L1597.5 1250.6C1594.4 1245.4 1589 1240.2 1582.9 1236.7C1572.4 1230.8 1549.5 1224.3 1526.3 1220.8C1512.8 1218.7 1508.1 1218.5 1472 1218.5C1436.4 1218.6 1431 1218.8 1417.5 1220.8C1377.9 1226.7 1353.2 1236.6 1347.8 1248.6C1346.6 1251.4 1344.9 1253.5 1343.4 1254.1C1341.9 1254.6 1317.4 1255 1284.7 1255.1C1253.8 1255.2 1227.2 1255.5 1225.5 1255.9C1221.4 1256.8 1221.4 1258.8 1225.3 1264C1227.2 1266.5 1233.1 1274.6 1238.4 1282C1243.7 1289.4 1250 1297.9 1252.3 1300.9C1254.6 1303.8 1257.4 1307.7 1258.5 1309.5C1259.6 1311.3 1261.3 1313.8 1262.3 1315.1C1267.7 1322.3 1288.5 1350.8 1290.6 1353.9C1291.9 1355.9 1295.2 1360.5 1297.8 1364.1C1300.4 1367.7 1306.6 1376.5 1311.7 1383.6C1316.8 1390.7 1326.3 1403.9 1332.9 1413C1339.5 1422.1 1350.8 1437.6 1357.9 1447.5C1365.1 1457.4 1375 1471.1 1380 1478C1385 1484.9 1389.8 1491.8 1390.7 1493.4C1391.5 1495 1394.7 1499.5 1397.8 1503.5C1405.1 1512.7 1415.9 1527.5 1418.5 1531.6C1419.6 1533.4 1421.7 1536.3 1423.1 1538.2C1429.3 1546.1 1444 1566.8 1444 1567.5C1444 1567.9 1446.4 1571.3 1449.3 1574.9C1452.2 1578.5 1458.6 1587 1463.5 1593.8C1468.4 1600.5 1472.9 1606 1473.4 1606C1474 1606 1476.3 1603.6 1478.4 1600.7ZM1723.5 1245.7C1724.8 1244.6 1725.1 1243.6 1724.6 1241.5C1723.8 1238.3 1712.8 1227.5 1705 1222.2C1698.6 1217.9 1678.1 1208.9 1666.5 1205.3C1662.1 1203.9 1656.9 1202.2 1655 1201.4C1648.5 1198.8 1619.1 1192.1 1601.2 1189.1C1559.5 1182.1 1537.8 1180.3 1485.5 1179.4C1435.8 1178.5 1408.8 1180 1361.5 1186C1333.2 1189.5 1286.8 1200.3 1274.4 1206.1C1272.1 1207.1 1269.8 1208 1269.3 1208C1267.2 1208 1253.1 1214.3 1244.1 1219.3C1237.3 1223 1232.3 1226.8 1226.3 1232.7C1216.5 1242.3 1215.8 1244.4 1222.6 1245.4C1225.2 1245.7 1251.6 1246 1281.3 1246L1335.3 1246L1341.9 1239.1C1347.4 1233.4 1350.2 1231.4 1359 1227.2C1375.9 1219.1 1388.7 1215.7 1417.4 1211.5C1432.9 1209.2 1437.4 1209 1469.4 1209C1499.2 1209 1507.1 1209.3 1521.5 1211.1C1563.3 1216.3 1588.5 1225.1 1601.1 1238.8L1607.1 1245.4L1663.8 1246C1695 1246.4 1720.8 1246.7 1721.1 1246.8C1721.4 1246.9 1722.4 1246.4 1723.5 1245.7ZM944.4 1152.7C952.6 1141.8 964.6 1124.8 967.5 1120.2C969.1 1117.6 975.7 1108.5 982 1100C988.3 1091.5 994.9 1082.2 996.6 1079.4C998.3 1076.6 1003 1069.9 1007.1 1064.4C1011.2 1059 1018.8 1048.2 1024.1 1040.5C1029.3 1032.8 1038.5 1019.8 1044.5 1011.5C1050.4 1003.2 1057.4 993.5 1059.9 989.9C1062.4 986.3 1066.4 980.7 1068.8 977.4C1071.2 974.2 1076.2 967 1080 961.5C1088.6 949 1097.8 936 1105.1 926.1C1108.2 921.9 1114.9 912.1 1120.1 904.5C1125.3 896.8 1133.4 885.3 1138.1 879C1142.8 872.7 1148.3 865 1150.4 862C1152.4 859 1156.4 853.4 1159.1 849.5C1161.8 845.6 1166.3 839.4 1169 835.5C1171.7 831.6 1175.6 826.2 1177.5 823.5C1185 813.1 1186.2 811 1185.7 809.7C1184.8 807.4 1175.3 807 1119.4 807L1066.1 807L1063.5 802.6C1060.4 797.4 1055 792.2 1048.9 788.7C1038.4 782.8 1015.5 776.3 992.3 772.8C978.8 770.7 974.1 770.5 938 770.5C902.4 770.6 897 770.8 883.5 772.8C843.9 778.7 819.2 788.6 813.8 800.6C812.6 803.4 810.9 805.5 809.4 806.1C807.9 806.6 783.4 807 750.7 807.1C719.8 807.2 693.2 807.5 691.5 807.9C687.4 808.8 687.4 810.8 691.3 816C693.2 818.5 699.1 826.6 704.4 834C709.7 841.4 716 849.9 718.3 852.9C720.6 855.8 723.4 859.7 724.5 861.5C725.6 863.3 727.3 865.8 728.3 867.1C733.7 874.3 754.5 902.8 756.6 905.9C757.9 907.9 761.2 912.5 763.8 916.1C766.4 919.7 772.6 928.5 777.7 935.6C782.8 942.7 792.3 955.9 798.9 965C805.5 974.1 816.8 989.6 823.9 999.5C831.1 1009.4 841 1023.1 846 1030C851 1036.9 855.8 1043.8 856.7 1045.4C857.5 1047 860.7 1051.5 863.8 1055.5C871.1 1064.7 881.9 1079.5 884.5 1083.6C885.6 1085.4 887.7 1088.3 889.1 1090.2C895.3 1098.1 910 1118.8 910 1119.5C910 1119.9 912.4 1123.3 915.3 1126.9C918.2 1130.5 924.6 1139 929.5 1145.8C934.4 1152.5 938.9 1158 939.4 1158C940 1158 942.3 1155.6 944.4 1152.7ZM1475.4 1151.7C1483.6 1140.8 1495.6 1123.8 1498.5 1119.2C1500.2 1116.6 1506.7 1107.5 1513 1099C1519.3 1090.5 1525.9 1081.2 1527.6 1078.4C1529.3 1075.6 1534 1068.9 1538.1 1063.4C1542.2 1058 1549.8 1047.2 1555.1 1039.5C1560.3 1031.8 1569.5 1018.8 1575.5 1010.5C1581.4 1002.2 1588.4 992.5 1590.9 988.9C1593.4 985.3 1597.4 979.7 1599.8 976.4C1602.2 973.2 1607.2 966 1611 960.5C1619.6 948 1628.8 935 1636.1 925.1C1639.2 920.9 1645.9 911.1 1651.1 903.5C1656.3 895.8 1664.4 884.3 1669.1 878C1673.8 871.7 1679.3 864 1681.4 861C1683.4 858 1687.4 852.4 1690.1 848.5C1692.8 844.6 1697.3 838.4 1700 834.5C1702.7 830.6 1706.6 825.2 1708.5 822.5C1716 812.1 1717.2 810 1716.7 808.7C1715.8 806.4 1706.3 806 1650.4 806L1597.1 806L1594.5 801.6C1591.4 796.4 1586 791.2 1579.9 787.7C1569.4 781.8 1546.5 775.3 1523.3 771.8C1509.8 769.7 1505.1 769.5 1469 769.5C1433.4 769.6 1428 769.8 1414.5 771.8C1374.9 777.7 1350.2 787.6 1344.8 799.6C1343.6 802.4 1341.9 804.5 1340.4 805.1C1338.9 805.6 1314.4 806 1281.7 806.1C1250.8 806.2 1224.2 806.5 1222.5 806.9C1218.4 807.8 1218.4 809.8 1222.3 815C1224.2 817.5 1230.1 825.6 1235.4 833C1240.7 840.4 1247 848.9 1249.3 851.9C1251.6 854.8 1254.4 858.7 1255.5 860.5C1256.6 862.3 1258.3 864.8 1259.3 866.1C1264.7 873.3 1285.5 901.8 1287.6 904.9C1288.9 906.9 1292.2 911.5 1294.8 915.1C1297.4 918.7 1303.6 927.5 1308.7 934.6C1313.8 941.7 1323.3 954.9 1329.9 964C1336.5 973.1 1347.8 988.6 1354.9 998.5C1362.1 1008.4 1372 1022.1 1377 1029C1382 1035.9 1386.8 1042.8 1387.7 1044.4C1388.5 1046 1391.7 1050.5 1394.8 1054.5C1402.1 1063.7 1412.9 1078.5 1415.5 1082.6C1416.6 1084.4 1418.7 1087.3 1420.1 1089.2C1426.3 1097.1 1441 1117.8 1441 1118.5C1441 1118.9 1443.4 1122.3 1446.3 1125.9C1449.2 1129.5 1455.6 1138 1460.5 1144.8C1465.4 1151.5 1469.9 1157 1470.4 1157C1471 1157 1473.3 1154.6 1475.4 1151.7ZM1189.5 797.7C1190.8 796.6 1191.1 795.6 1190.6 793.5C1189.8 790.3 1178.8 779.5 1171 774.2C1164.6 769.9 1144.1 760.9 1132.5 757.3C1128.1 755.9 1122.9 754.2 1121 753.4C1114.5 750.8 1085.1 744.1 1067.2 741.1C1025.5 734.1 1003.8 732.3 951.5 731.4C901.8 730.5 874.8 732 827.5 738C799.2 741.5 752.8 752.3 740.4 758.1C738.1 759.1 735.8 760 735.3 760C733.2 760 719.1 766.3 710.1 771.3C703.3 775 698.3 778.8 692.3 784.7C682.5 794.3 681.8 796.4 688.6 797.4C691.2 797.7 717.6 798 747.3 798L801.3 798L807.9 791.1C813.4 785.4 816.2 783.4 825 779.2C841.9 771.1 854.7 767.7 883.4 763.5C898.9 761.2 903.4 761 935.4 761C965.2 761 973.1 761.3 987.5 763.1C1029.3 768.3 1054.5 777.1 1067.1 790.8L1073.1 797.4L1129.8 798C1161 798.4 1186.8 798.7 1187.1 798.8C1187.4 798.9 1188.4 798.4 1189.5 797.7ZM1720.5 796.7C1721.8 795.6 1722.1 794.6 1721.6 792.5C1720.8 789.3 1709.8 778.5 1702 773.2C1695.6 768.9 1675.1 759.9 1663.5 756.3C1659.1 754.9 1653.9 753.2 1652 752.4C1645.5 749.8 1616.1 743.1 1598.2 740.1C1556.5 733.1 1534.8 731.3 1482.5 730.4C1432.8 729.5 1405.8 731 1358.5 737C1330.2 740.5 1283.8 751.3 1271.4 757.1C1269.1 758.1 1266.8 759 1266.3 759C1264.2 759 1250.1 765.3 1241.1 770.3C1234.3 774 1229.3 777.8 1223.3 783.7C1213.5 793.3 1212.8 795.4 1219.6 796.4C1222.2 796.7 1248.6 797 1278.3 797L1332.3 797L1338.9 790.1C1344.4 784.4 1347.2 782.4 1356 778.2C1372.9 770.1 1385.7 766.7 1414.4 762.5C1429.9 760.2 1434.4 760 1466.4 760C1496.2 760 1504.1 760.3 1518.5 762.1C1560.3 767.3 1585.5 776.1 1598.1 789.8L1604.1 796.4L1660.8 797C1692 797.4 1717.8 797.7 1718.1 797.8C1718.4 797.9 1719.4 797.4 1720.5 796.7ZM1206.4 781.7C1214.6 770.8 1226.6 753.8 1229.5 749.2C1231.2 746.6 1237.7 737.5 1244 729C1250.3 720.5 1256.9 711.2 1258.6 708.4C1260.3 705.6 1265 698.9 1269.1 693.4C1273.2 688 1280.8 677.2 1286.1 669.5C1291.3 661.8 1300.5 648.8 1306.5 640.5C1312.4 632.2 1319.4 622.5 1321.9 618.9C1324.4 615.3 1328.4 609.7 1330.8 606.4C1333.2 603.2 1338.2 596 1342 590.5C1350.6 578 1359.8 565 1367.1 555.1C1370.2 550.9 1376.9 541.1 1382.1 533.5C1387.3 525.8 1395.4 514.3 1400.1 508C1404.8 501.7 1410.3 494 1412.4 491C1414.4 488 1418.4 482.4 1421.1 478.5C1423.8 474.6 1428.3 468.4 1431 464.5C1433.7 460.6 1437.6 455.2 1439.5 452.5C1447 442.1 1448.2 440 1447.7 438.7C1446.8 436.4 1437.3 436 1381.4 436L1328.1 436L1325.5 431.6C1322.4 426.4 1317 421.2 1310.9 417.7C1300.4 411.8 1277.5 405.3 1254.3 401.8C1240.8 399.7 1236.1 399.5 1200 399.5C1164.4 399.6 1159 399.8 1145.5 401.8C1105.9 407.7 1081.2 417.6 1075.8 429.6C1074.6 432.4 1072.9 434.5 1071.4 435.1C1069.9 435.6 1045.4 436 1012.7 436.1C981.8 436.2 955.2 436.5 953.5 436.9C949.4 437.8 949.4 439.8 953.3 445C955.2 447.5 961.1 455.6 966.4 463C971.7 470.4 978 478.9 980.3 481.9C982.6 484.8 985.4 488.7 986.5 490.5C987.6 492.3 989.3 494.8 990.3 496.1C995.7 503.3 1016.5 531.8 1018.6 534.9C1019.9 536.9 1023.2 541.5 1025.8 545.1C1028.4 548.7 1034.6 557.5 1039.7 564.6C1044.8 571.7 1054.3 584.9 1060.9 594C1067.5 603.1 1078.8 618.6 1085.9 628.5C1093.1 638.4 1103 652.1 1108 659C1113 665.9 1117.8 672.8 1118.7 674.4C1119.5 676 1122.7 680.5 1125.8 684.5C1133.1 693.7 1143.9 708.5 1146.5 712.6C1147.6 714.4 1149.7 717.3 1151.1 719.2C1157.3 727.1 1172 747.8 1172 748.5C1172 748.9 1174.4 752.3 1177.3 755.9C1180.2 759.5 1186.6 768 1191.5 774.8C1196.4 781.5 1200.9 787 1201.4 787C1202 787 1204.3 784.6 1206.4 781.7ZM1451.5 426.7C1452.8 425.6 1453.1 424.6 1452.6 422.5C1451.8 419.3 1440.8 408.5 1433 403.2C1426.6 398.9 1406.1 389.9 1394.5 386.3C1390.1 384.9 1384.9 383.2 1383 382.4C1376.5 379.8 1347.1 373.1 1329.2 370.1C1287.5 363.1 1265.8 361.3 1213.5 360.4C1163.8 359.5 1136.8 361 1089.5 367C1061.2 370.5 1014.8 381.3 1002.4 387.1C1000.1 388.1 997.8 389 997.3 389C995.2 389 981.1 395.3 972.1 400.3C965.3 404 960.3 407.8 954.3 413.7C944.5 423.3 943.8 425.4 950.6 426.4C953.2 426.7 979.6 427 1009.3 427L1063.3 427L1069.9 420.1C1075.4 414.4 1078.2 412.4 1087 408.2C1103.9 400.1 1116.7 396.7 1145.4 392.5C1160.9 390.2 1165.4 390 1197.4 390C1227.2 390 1235.1 390.3 1249.5 392.1C1291.3 397.3 1316.5 406.1 1329.1 419.8L1335.1 426.4L1391.8 427C1423 427.4 1448.8 427.7 1449.1 427.8C1449.4 427.9 1450.4 427.4 1451.5 426.7ZM246.8 364.4C244.8 363.5 242.8 362.1 242.3 361.2C241.3 359.1 240.6 217.8 241.5 202.2C242.1 192.4 242.5 190.5 244.5 188.2C246.7 185.6 247.3 185.5 258.3 185.2C269.1 184.9 269.8 185 272.4 187.2C274.8 189.2 275.3 190.7 276 197C276.5 201.1 276.9 239.4 277 282.1L277 359.7L274.7 361.8C273.4 363.1 270.8 364.5 268.9 365C263.8 366.5 251 366.1 246.8 364.4Z"/></svg>